<?xml version="1.0" encoding="UTF-8"?>
<svg xmlns="http://www.w3.org/2000/svg" xmlns:xlink="http://www.w3.org/1999/xlink" width="60pt" height="68pt" viewBox="0 0 60 68" version="1.1">
<g id="surface1">
<path style=" stroke:none;fill-rule:nonzero;fill:rgb(10.588235%,45.098039%,72.941176%);fill-opacity:1;" d="M 5.023438 60.664062 L 0 0.113281 L 60 0.234375 L 54.6875 60.664062 L 30.226562 67.648438 Z M 5.023438 60.664062 "/>
<path style=" stroke:none;fill-rule:nonzero;fill:rgb(10.980392%,53.333333%,78.039216%);fill-opacity:1;" d="M 30.226562 61.800781 L 30.226562 5.882812 L 54.933594 5.960938 L 50.527344 55.992188 Z M 30.226562 61.800781 "/>
<path style=" stroke:none;fill-rule:nonzero;fill:rgb(100%,100%,100%);fill-opacity:1;" d="M 48.800781 13.027344 L 10.789062 13.027344 L 11.820312 20.335938 L 29.855469 20.335938 L 12.109375 27.851562 L 13.136719 34.917969 L 39.285156 34.917969 L 38.339844 44.785156 L 29.484375 46.492188 L 21.453125 44.460938 L 20.839844 38.855469 L 13.46875 38.855469 L 14.453125 50.511719 L 30.265625 54.855469 L 45.421875 50.105469 L 47.359375 27.320312 L 31.339844 27.320312 L 48.800781 20.175781 Z M 48.800781 13.027344 "/>
</g>
</svg>
