<?xml version="1.0" encoding="UTF-8"?>
<svg xmlns="http://www.w3.org/2000/svg" xmlns:xlink="http://www.w3.org/1999/xlink" width="60pt" height="76pt" viewBox="0 0 60 76" version="1.1">
<g id="surface1">
<path style=" stroke:none;fill-rule:nonzero;fill:rgb(16.862745%,66.27451%,46.666667%);fill-opacity:1;" d="M 26.902344 0 L 39.390625 0 L 39.390625 56.832031 C 32.992188 58.035156 28.285156 58.507812 23.1875 58.507812 C 7.9375 58.492188 0 51.722656 0 38.730469 C 0 26.210938 8.421875 18.085938 21.472656 18.085938 C 23.496094 18.085938 25.039062 18.242188 26.902344 18.71875 Z M 27.339844 28.960938 C 25.878906 28.484375 24.671875 28.328125 23.128906 28.328125 C 16.8125 28.328125 13.164062 32.152344 13.164062 38.859375 C 13.164062 45.382812 16.652344 48.988281 23.046875 48.988281 C 24.429688 48.988281 25.554688 48.910156 27.339844 48.675781 Z M 27.339844 28.960938 "/>
<path style=" stroke:none;fill-rule:nonzero;fill:rgb(16.862745%,66.27451%,46.666667%);fill-opacity:1;" d="M 59.808594 19.609375 L 59.808594 48.066406 C 59.808594 57.863281 59.070312 62.578125 56.902344 66.640625 C 54.875 70.546875 52.207031 73.011719 46.695312 75.730469 L 35.109375 70.308594 C 40.621094 67.765625 43.289062 65.519531 44.992188 62.085938 C 46.777344 58.578125 47.339844 54.515625 47.339844 43.828125 L 47.339844 19.613281 L 59.808594 19.613281 Z M 46.082031 0 L 58.566406 0 L 58.566406 12.597656 L 46.082031 12.597656 Z M 46.082031 0 "/>
</g>
</svg>
