<?xml version="1.0" encoding="UTF-8"?>
<svg xmlns="http://www.w3.org/2000/svg" xmlns:xlink="http://www.w3.org/1999/xlink" width="60pt" height="50pt" viewBox="0 0 60 50" version="1.1">
<g id="surface1">
<path style=" stroke:none;fill-rule:evenodd;fill:rgb(21.176471%,27.058824%,28.235294%);fill-opacity:1;" d="M 9.050781 40.457031 L 9.050781 36.652344 C 9.050781 36.152344 9.367188 35.75 9.886719 35.75 L 10.03125 35.75 C 10.554688 35.75 10.867188 36.152344 10.867188 36.652344 L 10.867188 44.664062 C 10.867188 46.617188 9.894531 48.171875 8.199219 49.160156 C 7.421875 49.617188 6.535156 49.859375 5.632812 49.855469 L 5.273438 49.855469 C 3.304688 49.855469 1.738281 48.886719 0.742188 47.210938 C 0.277344 46.4375 0.0390625 45.558594 0.0429688 44.664062 L 0.0429688 44.304688 C 0.0429688 42.351562 1.015625 40.800781 2.707031 39.808594 C 3.484375 39.351562 4.371094 39.109375 5.273438 39.113281 L 5.632812 39.113281 C 6.964844 39.113281 8.097656 39.625 9.050781 40.457031 Z M 1.855469 44.484375 C 1.855469 45.894531 2.546875 46.957031 3.792969 47.632812 C 4.296875 47.90625 4.84375 48.054688 5.417969 48.054688 C 6.816406 48.054688 7.847656 47.402344 8.5625 46.226562 C 8.898438 45.679688 9.050781 45.082031 9.050781 44.449219 C 9.050781 43.222656 8.46875 42.269531 7.472656 41.5625 C 6.871094 41.132812 6.191406 40.914062 5.453125 40.914062 C 3.933594 40.914062 2.839844 41.679688 2.179688 43.035156 C 1.960938 43.492188 1.855469 43.976562 1.855469 44.484375 Z M 17.167969 39.113281 L 17.417969 39.113281 C 19.523438 39.113281 21.125 40.128906 22.136719 41.949219 C 22.542969 42.679688 22.761719 43.472656 22.761719 44.304688 L 22.761719 44.664062 C 22.761719 46.617188 21.789062 48.171875 20.09375 49.160156 C 19.304688 49.617188 18.4375 49.855469 17.527344 49.855469 L 17.167969 49.855469 C 15.199219 49.855469 13.632812 48.886719 12.636719 47.210938 C 12.171875 46.4375 11.933594 45.558594 11.933594 44.664062 L 11.933594 44.304688 C 11.933594 42.351562 12.910156 40.804688 14.601562 39.808594 C 15.386719 39.347656 16.253906 39.113281 17.167969 39.113281 Z M 13.75 44.484375 C 13.75 45.855469 14.429688 46.859375 15.59375 47.570312 C 16.140625 47.902344 16.742188 48.054688 17.382812 48.054688 C 18.746094 48.054688 19.753906 47.367188 20.457031 46.226562 C 20.792969 45.679688 20.945312 45.082031 20.945312 44.449219 C 20.945312 43.175781 20.324219 42.203125 19.269531 41.496094 C 18.6875 41.109375 18.042969 40.914062 17.347656 40.914062 C 15.824219 40.914062 14.730469 41.679688 14.074219 43.035156 C 13.851562 43.492188 13.75 43.976562 13.75 44.484375 Z M 30.308594 41.058594 C 30.035156 40.933594 29.523438 40.890625 29.226562 40.878906 C 27.710938 40.824219 26.609375 41.671875 25.964844 43 C 25.742188 43.457031 25.644531 43.941406 25.644531 44.449219 C 25.644531 45.992188 26.460938 47.074219 27.847656 47.730469 C 28.355469 47.96875 29.011719 48.015625 29.5625 48.015625 C 30.050781 48.015625 30.742188 47.722656 31.175781 47.515625 L 31.25 47.480469 L 31.585938 47.480469 L 31.621094 47.488281 C 32.035156 47.574219 32.347656 47.832031 32.347656 48.273438 L 32.347656 48.453125 C 32.347656 49.550781 30.324219 49.800781 29.554688 49.851562 C 26.832031 50.042969 24.800781 48.558594 24.023438 45.984375 C 23.886719 45.535156 23.828125 45.089844 23.828125 44.625 L 23.828125 44.269531 C 23.828125 42.316406 24.804688 40.769531 26.492188 39.773438 C 27.277344 39.3125 28.148438 39.078125 29.058594 39.078125 L 29.421875 39.078125 C 30.390625 39.078125 31.28125 39.351562 32.078125 39.890625 L 32.144531 39.9375 L 32.1875 40.007812 C 32.273438 40.148438 32.347656 40.3125 32.347656 40.480469 L 32.347656 40.65625 C 32.347656 41.117188 32 41.367188 31.582031 41.445312 L 31.546875 41.453125 L 31.4375 41.453125 C 31.167969 41.453125 30.554688 41.171875 30.308594 41.058594 Z M 36.203125 42.28125 C 36.90625 41.582031 37.613281 40.878906 38.328125 40.191406 C 38.527344 40 39.285156 39.1875 39.582031 39.1875 L 39.90625 39.1875 L 39.945312 39.191406 C 40.359375 39.277344 40.667969 39.539062 40.667969 39.980469 L 40.667969 40.15625 C 40.667969 40.460938 40.316406 40.808594 40.117188 41.015625 C 39.699219 41.453125 39.261719 41.878906 38.832031 42.308594 L 36.640625 44.515625 C 37.585938 45.457031 38.527344 46.398438 39.464844 47.34375 C 39.726562 47.605469 39.984375 47.867188 40.238281 48.136719 C 40.328125 48.226562 40.460938 48.34375 40.539062 48.476562 C 40.621094 48.597656 40.667969 48.734375 40.667969 48.882812 L 40.667969 49.070312 L 40.660156 49.113281 C 40.554688 49.523438 40.292969 49.855469 39.835938 49.855469 L 39.691406 49.855469 C 39.390625 49.855469 39.050781 49.519531 38.84375 49.324219 C 38.421875 48.929688 38.011719 48.511719 37.597656 48.105469 L 36.203125 46.746094 L 36.203125 48.917969 C 36.203125 49.417969 35.886719 49.820312 35.363281 49.820312 L 35.222656 49.820312 C 34.699219 49.820312 34.386719 49.417969 34.386719 48.917969 L 34.386719 36.6875 C 34.386719 36.1875 34.699219 35.789062 35.222656 35.789062 L 35.363281 35.789062 C 35.886719 35.789062 36.203125 36.1875 36.203125 36.6875 Z M 58.835938 39.1875 L 59.015625 39.1875 C 59.5625 39.1875 59.925781 39.546875 59.925781 40.085938 C 59.925781 40.832031 59.207031 41.023438 58.585938 41.023438 C 57.769531 41.023438 56.992188 41.511719 56.429688 42.0625 C 55.726562 42.746094 55.421875 43.625 55.421875 44.589844 L 55.421875 48.953125 C 55.421875 49.453125 55.105469 49.855469 54.582031 49.855469 L 54.441406 49.855469 C 53.917969 49.855469 53.605469 49.453125 53.605469 48.953125 L 53.605469 44.339844 C 53.605469 42.570312 54.472656 41.125 55.921875 40.109375 C 56.785156 39.503906 57.777344 39.1875 58.835938 39.1875 Z M 45.929688 47.828125 C 46.589844 48.058594 47.34375 48.027344 48.019531 47.90625 C 48.367188 47.761719 49.253906 47.378906 49.578125 47.433594 L 49.632812 47.441406 L 49.679688 47.464844 C 49.878906 47.5625 50.066406 47.699219 50.171875 47.898438 C 50.40625 48.371094 50.292969 48.84375 49.824219 49.113281 L 49.671875 49.199219 C 47.949219 50.1875 46.117188 50.046875 44.398438 49.128906 C 43.578125 48.6875 42.949219 48.035156 42.484375 47.238281 L 42.378906 47.050781 C 41.269531 45.152344 41.421875 43.152344 42.667969 41.347656 C 43.097656 40.71875 43.660156 40.238281 44.320312 39.863281 L 44.570312 39.71875 C 46.191406 38.789062 47.929688 38.851562 49.597656 39.667969 C 50.492188 40.105469 51.21875 40.761719 51.71875 41.621094 L 51.808594 41.777344 C 52.171875 42.398438 51.699219 42.941406 51.214844 43.316406 C 50.652344 43.746094 50.082031 44.265625 49.542969 44.730469 C 48.335938 45.761719 47.132812 46.796875 45.929688 47.828125 Z M 44.371094 46.742188 C 45.71875 45.597656 47.066406 44.449219 48.40625 43.296875 C 48.867188 42.902344 49.371094 42.496094 49.828125 42.082031 C 49.460938 41.628906 48.851562 41.296875 48.332031 41.097656 C 47.285156 40.703125 46.25 40.835938 45.289062 41.386719 C 44.035156 42.109375 43.496094 43.253906 43.542969 44.683594 C 43.5625 45.246094 43.714844 45.785156 44.015625 46.261719 C 44.125 46.433594 44.242188 46.589844 44.371094 46.742188 Z M 34.566406 10.636719 L 39.925781 10.636719 L 39.925781 16.074219 L 42.636719 16.074219 C 43.890625 16.074219 45.175781 15.851562 46.359375 15.453125 C 46.941406 15.257812 47.597656 14.984375 48.171875 14.640625 C 47.414062 13.664062 47.027344 12.425781 46.914062 11.203125 C 46.761719 9.546875 47.097656 7.386719 48.226562 6.089844 L 48.792969 5.441406 L 49.460938 5.976562 C 51.152344 7.324219 52.574219 9.207031 52.824219 11.355469 C 54.859375 10.761719 57.25 10.898438 59.042969 11.929688 L 59.78125 12.347656 L 59.394531 13.097656 C 57.875 16.035156 54.703125 16.945312 51.601562 16.785156 C 46.960938 28.25 36.859375 33.675781 24.613281 33.675781 C 18.285156 33.675781 12.476562 31.332031 9.171875 25.761719 L 9.121094 25.667969 L 8.636719 24.699219 C 7.519531 22.246094 7.148438 19.5625 7.398438 16.875 L 7.476562 16.074219 L 12.058594 16.074219 L 12.058594 10.636719 L 17.417969 10.636719 L 17.417969 5.320312 L 28.136719 5.320312 L 28.136719 0.00390625 L 34.566406 0.00390625 L 34.566406 10.636719 "/>
<path style=" stroke:none;fill-rule:evenodd;fill:rgb(13.333333%,62.745098%,78.431373%);fill-opacity:1;" d="M 51.929688 12.648438 C 52.289062 9.878906 50.199219 7.699219 48.90625 6.667969 C 47.410156 8.382812 47.175781 12.871094 49.519531 14.761719 C 48.214844 15.914062 45.457031 16.960938 42.636719 16.960938 L 8.289062 16.960938 C 8.015625 19.878906 8.535156 22.574219 9.710938 24.875 L 10.105469 25.582031 C 10.351562 26 10.621094 26.402344 10.914062 26.789062 C 12.324219 26.878906 13.628906 26.910156 14.820312 26.882812 C 17.160156 26.832031 19.070312 26.558594 20.515625 26.058594 C 20.730469 25.996094 20.957031 26.109375 21.03125 26.320312 C 21.101562 26.527344 20.996094 26.753906 20.789062 26.835938 C 20.59375 26.902344 20.394531 26.960938 20.1875 27.019531 C 19.046875 27.34375 17.824219 27.5625 16.25 27.65625 C 16.34375 27.660156 16.152344 27.671875 16.152344 27.671875 C 16.097656 27.675781 16.027344 27.683594 15.976562 27.6875 C 15.355469 27.71875 14.683594 27.726562 14 27.726562 C 13.25 27.726562 12.511719 27.714844 11.6875 27.671875 L 11.667969 27.6875 C 14.527344 30.878906 19.003906 32.792969 24.613281 32.792969 C 36.484375 32.792969 46.550781 27.570312 51.011719 15.851562 C 54.171875 16.171875 57.214844 15.371094 58.597656 12.695312 C 56.394531 11.433594 53.5625 11.835938 51.929688 12.648438 "/>
<path style=" stroke:none;fill-rule:evenodd;fill:rgb(21.568627%,69.411765%,85.098039%);fill-opacity:1;" d="M 51.929688 12.648438 C 52.289062 9.878906 50.199219 7.699219 48.90625 6.667969 C 47.410156 8.382812 47.175781 12.871094 49.519531 14.761719 C 48.214844 15.914062 45.457031 16.960938 42.636719 16.960938 L 10.324219 16.960938 C 10.183594 21.433594 11.855469 24.832031 14.820312 26.882812 C 17.160156 26.832031 19.070312 26.558594 20.515625 26.058594 C 20.730469 25.996094 20.957031 26.109375 21.03125 26.320312 C 21.101562 26.527344 20.996094 26.753906 20.789062 26.835938 C 20.59375 26.902344 20.394531 26.960938 20.1875 27.019531 C 19.046875 27.34375 17.722656 27.589844 16.144531 27.6875 C 16.144531 27.6875 16.105469 27.652344 16.105469 27.652344 C 20.144531 29.707031 26 29.699219 32.71875 27.140625 C 40.25 24.269531 47.257812 18.800781 52.144531 12.546875 C 52.070312 12.582031 52 12.613281 51.929688 12.648438 "/>
<path style=" stroke:none;fill-rule:evenodd;fill:rgb(10.588235%,50.588235%,64.705882%);fill-opacity:1;" d="M 8.355469 20.511719 C 8.570312 22.074219 9.03125 23.539062 9.710938 24.875 L 10.105469 25.582031 C 10.351562 26 10.621094 26.402344 10.914062 26.789062 C 12.324219 26.878906 13.628906 26.910156 14.820312 26.882812 C 17.160156 26.832031 19.070312 26.558594 20.515625 26.058594 C 20.730469 25.996094 20.957031 26.109375 21.03125 26.320312 C 21.101562 26.527344 20.996094 26.753906 20.789062 26.835938 C 20.59375 26.902344 20.394531 26.960938 20.1875 27.019531 C 19.046875 27.34375 17.726562 27.578125 16.152344 27.671875 C 16.097656 27.675781 16 27.675781 15.945312 27.679688 C 15.324219 27.714844 14.664062 27.734375 13.976562 27.734375 C 13.230469 27.734375 12.464844 27.71875 11.640625 27.679688 C 14.5 30.871094 19.003906 32.792969 24.613281 32.792969 C 34.773438 32.792969 43.617188 28.964844 48.746094 20.511719 L 8.355469 20.511719 "/>
<path style=" stroke:none;fill-rule:evenodd;fill:rgb(11.372549%,56.862745%,70.588235%);fill-opacity:1;" d="M 10.632812 20.511719 C 11.242188 23.257812 12.699219 25.414062 14.820312 26.882812 C 17.160156 26.832031 19.070312 26.558594 20.515625 26.058594 C 20.730469 25.996094 20.957031 26.109375 21.03125 26.320312 C 21.101562 26.527344 20.996094 26.753906 20.789062 26.835938 C 20.59375 26.902344 20.394531 26.960938 20.1875 27.019531 C 19.046875 27.34375 17.699219 27.578125 16.121094 27.671875 C 20.160156 29.726562 26 29.699219 32.71875 27.140625 C 36.78125 25.589844 40.691406 23.285156 44.199219 20.511719 L 10.632812 20.511719 "/>
<path style=" stroke:none;fill-rule:evenodd;fill:rgb(13.72549%,63.921569%,76.078431%);fill-opacity:1;" d="M 12.953125 11.523438 L 17.597656 11.523438 L 17.597656 16.132812 L 12.953125 16.132812 Z M 13.339844 11.910156 L 13.707031 11.910156 L 13.707031 15.75 L 13.339844 15.75 Z M 14.027344 11.910156 L 14.410156 11.910156 L 14.410156 15.75 L 14.027344 15.75 Z M 14.730469 11.910156 L 15.113281 11.910156 L 15.113281 15.75 L 14.730469 15.75 Z M 15.4375 11.910156 L 15.816406 11.910156 L 15.816406 15.75 L 15.4375 15.75 Z M 16.140625 11.910156 L 16.519531 11.910156 L 16.519531 15.75 L 16.140625 15.75 Z M 16.84375 11.910156 L 17.210938 11.910156 L 17.210938 15.75 L 16.84375 15.75 Z M 18.3125 6.207031 L 22.953125 6.207031 L 22.953125 10.8125 L 18.308594 10.8125 L 18.308594 6.207031 Z M 18.699219 6.59375 L 19.0625 6.59375 L 19.0625 10.429688 L 18.699219 10.429688 Z M 19.386719 6.59375 L 19.765625 6.59375 L 19.765625 10.429688 L 19.386719 10.429688 Z M 20.089844 6.59375 L 20.472656 6.59375 L 20.472656 10.429688 L 20.089844 10.429688 Z M 20.792969 6.59375 L 21.175781 6.59375 L 21.175781 10.429688 L 20.792969 10.429688 Z M 21.5 6.59375 L 21.878906 6.59375 L 21.878906 10.429688 L 21.5 10.429688 Z M 22.203125 6.59375 L 22.566406 6.59375 L 22.566406 10.429688 L 22.203125 10.429688 Z M 22.203125 6.59375 "/>
<path style=" stroke:none;fill-rule:evenodd;fill:rgb(20.392157%,73.333333%,87.058824%);fill-opacity:1;" d="M 18.3125 11.523438 L 22.953125 11.523438 L 22.953125 16.132812 L 18.308594 16.132812 L 18.308594 11.523438 Z M 18.699219 11.910156 L 19.0625 11.910156 L 19.0625 15.75 L 18.699219 15.75 Z M 19.386719 11.910156 L 19.765625 11.910156 L 19.765625 15.75 L 19.386719 15.75 Z M 20.089844 11.910156 L 20.472656 11.910156 L 20.472656 15.75 L 20.089844 15.75 Z M 20.792969 11.910156 L 21.175781 11.910156 L 21.175781 15.75 L 20.792969 15.75 Z M 21.5 11.910156 L 21.878906 11.910156 L 21.878906 15.75 L 21.5 15.75 Z M 22.203125 11.910156 L 22.566406 11.910156 L 22.566406 15.75 L 22.203125 15.75 Z M 22.203125 11.910156 "/>
<path style=" stroke:none;fill-rule:evenodd;fill:rgb(13.72549%,63.921569%,76.078431%);fill-opacity:1;" d="M 23.667969 11.523438 L 28.316406 11.523438 L 28.316406 16.132812 L 23.667969 16.132812 Z M 24.054688 11.910156 L 24.425781 11.910156 L 24.425781 15.75 L 24.054688 15.75 Z M 24.746094 11.910156 L 25.128906 11.910156 L 25.128906 15.75 L 24.746094 15.75 Z M 25.449219 11.910156 L 25.832031 11.910156 L 25.832031 15.75 L 25.449219 15.75 Z M 26.152344 11.910156 L 26.535156 11.910156 L 26.535156 15.75 L 26.152344 15.75 Z M 26.855469 11.910156 L 27.238281 11.910156 L 27.238281 15.75 L 26.855469 15.75 Z M 27.5625 11.910156 L 27.929688 11.910156 L 27.929688 15.75 L 27.5625 15.75 Z M 27.5625 11.910156 "/>
<path style=" stroke:none;fill-rule:evenodd;fill:rgb(20.392157%,73.333333%,87.058824%);fill-opacity:1;" d="M 23.667969 6.207031 L 28.316406 6.207031 L 28.316406 10.8125 L 23.667969 10.8125 Z M 24.054688 6.59375 L 24.425781 6.59375 L 24.425781 10.429688 L 24.054688 10.429688 Z M 24.746094 6.59375 L 25.128906 6.59375 L 25.128906 10.429688 L 24.746094 10.429688 Z M 25.449219 6.59375 L 25.832031 6.59375 L 25.832031 10.429688 L 25.449219 10.429688 Z M 26.152344 6.59375 L 26.535156 6.59375 L 26.535156 10.429688 L 26.152344 10.429688 Z M 26.855469 6.59375 L 27.238281 6.59375 L 27.238281 10.429688 L 26.855469 10.429688 Z M 27.5625 6.59375 L 27.929688 6.59375 L 27.929688 10.429688 L 27.5625 10.429688 Z M 29.03125 11.523438 L 33.675781 11.523438 L 33.675781 16.132812 L 29.03125 16.132812 Z M 29.417969 11.910156 L 29.78125 11.910156 L 29.78125 15.75 L 29.417969 15.75 Z M 30.105469 11.910156 L 30.488281 11.910156 L 30.488281 15.75 L 30.105469 15.75 Z M 30.808594 11.910156 L 31.191406 11.910156 L 31.191406 15.75 L 30.808594 15.75 Z M 31.515625 11.910156 L 31.894531 11.910156 L 31.894531 15.75 L 31.515625 15.75 Z M 32.21875 11.910156 L 32.597656 11.910156 L 32.597656 15.75 L 32.21875 15.75 Z M 32.921875 11.910156 L 33.289062 11.910156 L 33.289062 15.75 L 32.921875 15.75 Z M 32.921875 11.910156 "/>
<path style=" stroke:none;fill-rule:evenodd;fill:rgb(13.72549%,63.921569%,76.078431%);fill-opacity:1;" d="M 29.03125 6.207031 L 33.675781 6.207031 L 33.675781 10.8125 L 29.03125 10.8125 Z M 29.417969 6.59375 L 29.78125 6.59375 L 29.78125 10.429688 L 29.417969 10.429688 Z M 30.105469 6.59375 L 30.488281 6.59375 L 30.488281 10.429688 L 30.105469 10.429688 Z M 30.808594 6.59375 L 31.191406 6.59375 L 31.191406 10.429688 L 30.808594 10.429688 Z M 31.515625 6.59375 L 31.894531 6.59375 L 31.894531 10.429688 L 31.515625 10.429688 Z M 32.21875 6.59375 L 32.597656 6.59375 L 32.597656 10.429688 L 32.21875 10.429688 Z M 32.921875 6.59375 L 33.289062 6.59375 L 33.289062 10.429688 L 32.921875 10.429688 Z M 32.921875 6.59375 "/>
<path style=" stroke:none;fill-rule:evenodd;fill:rgb(20.392157%,73.333333%,87.058824%);fill-opacity:1;" d="M 29.03125 0.890625 L 33.675781 0.890625 L 33.675781 5.5 L 29.03125 5.5 Z M 29.417969 1.273438 L 29.78125 1.273438 L 29.78125 5.117188 L 29.417969 5.117188 Z M 30.105469 1.273438 L 30.488281 1.273438 L 30.488281 5.117188 L 30.105469 5.117188 Z M 30.808594 1.273438 L 31.191406 1.273438 L 31.191406 5.117188 L 30.808594 5.117188 Z M 31.515625 1.273438 L 31.894531 1.273438 L 31.894531 5.117188 L 31.515625 5.117188 Z M 32.21875 1.273438 L 32.597656 1.273438 L 32.597656 5.117188 L 32.21875 5.117188 Z M 32.921875 1.273438 L 33.289062 1.273438 L 33.289062 5.117188 L 32.921875 5.117188 Z M 32.921875 1.273438 "/>
<path style=" stroke:none;fill-rule:evenodd;fill:rgb(13.72549%,63.921569%,76.078431%);fill-opacity:1;" d="M 34.386719 11.523438 L 39.03125 11.523438 L 39.03125 16.132812 L 34.386719 16.132812 Z M 34.777344 11.910156 L 35.140625 11.910156 L 35.140625 15.75 L 34.777344 15.75 Z M 35.464844 11.910156 L 35.84375 11.910156 L 35.84375 15.75 L 35.464844 15.75 Z M 36.167969 11.910156 L 36.550781 11.910156 L 36.550781 15.75 L 36.167969 15.75 Z M 36.871094 11.910156 L 37.253906 11.910156 L 37.253906 15.75 L 36.871094 15.75 Z M 37.574219 11.910156 L 37.957031 11.910156 L 37.957031 15.75 L 37.574219 15.75 Z M 38.28125 11.910156 L 38.644531 11.910156 L 38.644531 15.75 L 38.28125 15.75 Z M 38.28125 11.910156 "/>
<path style=" stroke:none;fill-rule:evenodd;fill:rgb(82.745098%,92.54902%,92.54902%);fill-opacity:1;" d="M 22.664062 23.601562 C 23.125 23.597656 23.558594 23.835938 23.789062 24.234375 C 24.019531 24.628906 24.019531 25.117188 23.789062 25.515625 C 23.558594 25.910156 23.125 26.152344 22.664062 26.144531 C 21.964844 26.136719 21.402344 25.570312 21.402344 24.875 C 21.402344 24.179688 21.964844 23.613281 22.664062 23.601562 "/>
<path style=" stroke:none;fill-rule:evenodd;fill:rgb(21.176471%,27.058824%,28.235294%);fill-opacity:1;" d="M 22.664062 23.964844 C 22.78125 23.964844 22.894531 23.984375 22.996094 24.027344 C 22.851562 24.109375 22.777344 24.28125 22.824219 24.441406 C 22.867188 24.605469 23.015625 24.71875 23.183594 24.71875 C 23.324219 24.71875 23.449219 24.640625 23.511719 24.527344 C 23.667969 24.894531 23.558594 25.324219 23.246094 25.578125 C 22.9375 25.832031 22.492188 25.851562 22.15625 25.628906 C 21.820312 25.410156 21.671875 24.992188 21.789062 24.609375 C 21.90625 24.226562 22.261719 23.964844 22.664062 23.964844 M 0 20.96875 L 59.609375 20.96875 C 58.308594 20.644531 55.503906 20.199219 55.964844 18.511719 C 53.605469 21.222656 47.914062 20.414062 46.476562 19.078125 C 44.878906 21.378906 35.566406 20.503906 34.917969 18.710938 C 32.910156 21.046875 26.699219 21.046875 24.691406 18.710938 C 24.042969 20.503906 14.730469 21.378906 13.132812 19.078125 C 11.695312 20.414062 6.003906 21.222656 3.644531 18.511719 C 4.105469 20.199219 1.296875 20.644531 0 20.96875 "/>
<path style=" stroke:none;fill-rule:evenodd;fill:rgb(74.117647%,85.098039%,84.313725%);fill-opacity:1;" d="M 26.070312 32.765625 C 22.898438 31.269531 21.15625 29.238281 20.1875 27.023438 C 19.007812 27.355469 17.59375 27.570312 15.945312 27.660156 C 15.324219 27.695312 14.671875 27.714844 13.988281 27.714844 C 13.199219 27.714844 12.367188 27.691406 11.492188 27.644531 C 14.40625 30.527344 17.984375 32.75 24.613281 32.792969 C 25.101562 32.792969 25.585938 32.78125 26.070312 32.765625 "/>
<path style=" stroke:none;fill-rule:evenodd;fill:rgb(82.745098%,92.54902%,92.54902%);fill-opacity:1;" d="M 21.367188 29.066406 C 20.925781 28.476562 20.5 27.734375 20.1875 27.019531 C 19.007812 27.355469 17.59375 27.570312 15.945312 27.660156 C 17.078125 28.269531 18.695312 28.835938 21.367188 29.066406 "/>
</g>
</svg>
