<?xml version="1.0" encoding="UTF-8"?>
<svg xmlns="http://www.w3.org/2000/svg" xmlns:xlink="http://www.w3.org/1999/xlink" width="60pt" height="60pt" viewBox="0 0 60 60" version="1.1">
<g id="surface1">
<path style=" stroke:none;fill-rule:nonzero;fill:rgb(23.529412%,35.294118%,60.392157%);fill-opacity:1;" d="M 60 30 C 60 46.566406 46.566406 60 30 60 C 13.433594 60 0 46.566406 0 30 C 0 13.433594 13.433594 0 30 0 C 46.566406 0 60 13.433594 60 30 Z M 60 30 "/>
<path style=" stroke:none;fill-rule:nonzero;fill:rgb(100%,100%,100%);fill-opacity:1;" d="M 39.753906 9.207031 L 33.109375 9.207031 C 29.164062 9.207031 24.777344 10.867188 24.777344 16.585938 C 24.796875 18.578125 24.777344 20.484375 24.777344 22.632812 L 20.21875 22.632812 L 20.21875 29.890625 L 24.917969 29.890625 L 24.917969 50.792969 L 33.5625 50.792969 L 33.5625 29.75 L 39.265625 29.75 L 39.78125 22.609375 L 33.414062 22.609375 C 33.414062 22.609375 33.429688 19.433594 33.414062 18.511719 C 33.414062 16.25 35.765625 16.378906 35.90625 16.378906 C 37.023438 16.378906 39.199219 16.382812 39.757812 16.378906 L 39.757812 9.207031 Z M 39.753906 9.207031 "/>
</g>
</svg>
