<?xml version="1.0" encoding="UTF-8"?>
<svg xmlns="http://www.w3.org/2000/svg" xmlns:xlink="http://www.w3.org/1999/xlink" width="10pt" height="10pt" viewBox="0 0 10 10" version="1.1">
<g id="surface1">
<path style=" stroke:none;fill-rule:nonzero;fill:rgb(23.529412%,35.294118%,60.392157%);fill-opacity:1;" d="M 10 5 C 10 7.761719 7.761719 10 5 10 C 2.238281 10 0 7.761719 0 5 C 0 2.238281 2.238281 0 5 0 C 7.761719 0 10 2.238281 10 5 Z M 10 5 "/>
<path style=" stroke:none;fill-rule:nonzero;fill:rgb(100%,100%,100%);fill-opacity:1;" d="M 6.625 1.535156 L 5.519531 1.535156 C 4.859375 1.535156 4.128906 1.8125 4.128906 2.765625 C 4.132812 3.097656 4.128906 3.414062 4.128906 3.773438 L 3.371094 3.773438 L 3.371094 4.980469 L 4.152344 4.980469 L 4.152344 8.464844 L 5.59375 8.464844 L 5.59375 4.957031 L 6.542969 4.957031 L 6.628906 3.769531 L 5.570312 3.769531 C 5.570312 3.769531 5.570312 3.238281 5.570312 3.085938 C 5.570312 2.707031 5.960938 2.730469 5.984375 2.730469 C 6.171875 2.730469 6.535156 2.730469 6.625 2.730469 Z M 6.625 1.535156 "/>
</g>
</svg>
