<?xml version="1.0" encoding="UTF-8"?>
<svg xmlns="http://www.w3.org/2000/svg" xmlns:xlink="http://www.w3.org/1999/xlink" width="60pt" height="60pt" viewBox="0 0 60 60" version="1.1">
<g id="surface1">
<path style=" stroke:none;fill-rule:nonzero;fill:rgb(40%,40%,100%);fill-opacity:1;" d="M 13.953125 37.085938 C 12.171875 35.6875 10.277344 34.34375 8.980469 32.457031 C 6.25 29.125 4.152344 25.269531 2.714844 21.21875 C 1.847656 18.582031 1.550781 15.757812 0.429688 13.226562 C -0.738281 11.386719 0.632812 9.375 2.648438 8.789062 C 3.542969 8.617188 5.121094 7.769531 3.21875 8.375 C 1.507812 9.628906 1.34375 7.238281 3.097656 7.085938 C 4.292969 6.929688 4.730469 5.949219 4.320312 5.070312 C 3.039062 4.234375 7.433594 3.316406 5.222656 2.066406 C 2.921875 -0.417969 8.441406 -0.894531 7.078125 1.925781 C 6.753906 4.09375 10.9375 1.527344 9.96875 4.035156 C 10.953125 5.234375 13.664062 4.308594 13.597656 5.996094 C 15.035156 6.09375 15.527344 7.304688 16.878906 7.398438 C 18.277344 8.027344 20.8125 8.523438 21.289062 10.101562 C 19.902344 11.199219 16.6875 7.832031 16.53125 10.871094 C 16.953125 15.367188 16.84375 19.996094 18.488281 24.273438 C 19.265625 26.863281 21.148438 28.902344 22.851562 30.921875 C 24.484375 32.898438 26.6875 34.289062 28.9375 35.460938 C 30.910156 36.390625 33.035156 37.003906 35.1875 37.394531 C 36.058594 36.726562 37.597656 34.25 38.957031 35.292969 C 39.019531 36.46875 36.257812 37.75 38.828125 37.621094 C 40.335938 37.164062 41.382812 38.785156 42.625 37.320312 C 43.769531 38.679688 47.382812 36.457031 46.566406 39.226562 C 45.464844 39.941406 43.859375 39.507812 42.757812 40.488281 C 40.9375 39.578125 39.488281 41.300781 37.476562 41.082031 C 35.242188 41.484375 32.964844 41.644531 30.699219 41.648438 C 26.980469 41.355469 23.179688 41.230469 19.644531 39.933594 C 17.648438 39.355469 15.703125 38.222656 13.953125 37.085938 Z M 17.09375 38.445312 C 19.039062 39.289062 20.941406 40.175781 23.078125 40.445312 C 26.460938 40.914062 29.957031 41.640625 33.351562 40.976562 C 31.8125 40.285156 30.226562 41.246094 28.695312 40.480469 C 26.855469 40.878906 24.886719 40.378906 23.019531 40.136719 C 20.894531 39.191406 18.605469 38.539062 16.613281 37.3125 C 14.128906 36.40625 17.898438 38.476562 18.570312 38.644531 C 20.125 39.523438 16.863281 38.191406 16.402344 37.824219 C 15.101562 37.097656 14.9375 37.25 16.273438 37.988281 C 16.542969 38.148438 16.808594 38.3125 17.09375 38.445312 Z M 13.390625 35.828125 C 15.273438 36.527344 13.378906 34.503906 12.519531 34.621094 C 12.132812 33.957031 11.054688 33.535156 11.816406 33.179688 C 10.445312 33.65625 10.378906 31.371094 9.734375 31.695312 C 8.285156 31.238281 9.171875 29.617188 7.445312 28.621094 C 7.285156 27.570312 5.726562 26.664062 5.230469 25.078125 C 5.011719 24.265625 3.472656 21.941406 4.417969 24.109375 C 5.222656 26.191406 6.640625 27.976562 7.820312 29.761719 C 8.738281 31.457031 9.820312 33.234375 11.488281 34.292969 C 12.050781 34.832031 12.59375 35.660156 13.386719 35.828125 Z M 7.953125 29.863281 C 8.019531 29.578125 8.300781 30.480469 7.953125 29.863281 Z M 15.648438 36.664062 C 16.066406 36.480469 15.046875 36.429688 15.648438 36.664062 Z M 16.671875 37.039062 C 16.566406 36.523438 16.203125 37.328125 16.671875 37.039062 Z M 17.953125 37.574219 C 18.5625 36.992188 17.011719 37.207031 17.953125 37.574219 Z M 20.152344 38.796875 C 20.523438 38.253906 18.964844 38.59375 20.152344 38.796875 Z M 15.933594 35.859375 C 16.878906 35.246094 14.707031 35.851562 15.933594 35.859375 Z M 16.894531 36.335938 C 16.867188 36.015625 16.550781 36.484375 16.894531 36.335938 Z M 21.699219 39.335938 C 22.472656 39.824219 26.210938 40.40625 23.867188 39.535156 C 23.476562 39.617188 19.527344 38.417969 21.699219 39.335938 Z M 14.070312 33.394531 C 13.996094 33.074219 12.871094 33.039062 14.070312 33.394531 Z M 16.308594 34.703125 C 16.890625 34.292969 15.097656 34.386719 16.308594 34.703125 Z M 18.1875 35.855469 C 19.023438 35.539062 16.835938 35.539062 18.1875 35.855469 Z M 13.160156 32.40625 C 14.066406 33.101562 16.816406 32.492188 14.546875 31.988281 C 13.515625 31.4375 11.191406 31.0625 12.777344 32.320312 Z M 19.464844 36.25 C 19.84375 35.609375 17.878906 35.886719 19.464844 36.25 Z M 17.546875 34.730469 C 19.765625 35.355469 15.683594 33.328125 17 34.496094 L 17.292969 34.632812 Z M 21.390625 36.949219 C 23.488281 36.96875 19.492188 36.660156 21.390625 36.949219 Z M 12.351562 31.191406 C 12.269531 30.800781 11.835938 31.222656 12.351562 31.191406 Z M 24.9375 38.941406 C 24.992188 38.234375 24.253906 39.464844 24.9375 38.941406 Z M 15.933594 33.382812 C 15.804688 33.011719 15.277344 33.367188 15.933594 33.382812 Z M 12.550781 30.945312 C 13.753906 30.871094 10.902344 30.414062 12.550781 30.945312 Z M 8.542969 28.355469 C 8.394531 27.777344 7.234375 27.316406 8.542969 28.355469 Z M 19.066406 35.03125 C 18.84375 34.78125 18.960938 35.085938 19.066406 35.03125 Z M 25.613281 39.050781 C 25.59375 38.664062 25.257812 39.195312 25.613281 39.050781 Z M 18.484375 34.433594 C 18.605469 33.9375 17.457031 34.28125 18.484375 34.433594 Z M 13.609375 31.339844 C 14.503906 31.246094 12.171875 30.734375 13.609375 31.339844 Z M 21.859375 36.46875 C 23.257812 35.914062 20.5 36.199219 21.859375 36.46875 Z M 17.570312 33.554688 C 19.175781 33.761719 15.652344 32.457031 17.210938 33.4375 Z M 23.164062 36.996094 C 24.664062 36.097656 24.171875 39.101562 25.714844 37.25 C 27.234375 36.136719 24.398438 38.621094 26.273438 37.449219 C 27.628906 36.542969 29.632812 37.878906 30.898438 38.3125 C 31.808594 38.269531 32.695312 39.101562 33.628906 38.59375 C 35.421875 38.113281 30.113281 37.878906 31.507812 37.019531 C 29.863281 37.496094 28.648438 36.449219 27.839844 35.398438 C 25.996094 34.972656 23.867188 34.027344 22.945312 32.394531 C 22.570312 31.785156 23.488281 32.484375 22.621094 31.480469 C 21.511719 30.496094 20.957031 29.371094 20.210938 28.171875 C 19.320312 27.695312 19.214844 26.296875 19.125 28.125 C 19.132812 26.972656 18.050781 26.195312 17.785156 26.515625 C 17.78125 25.40625 18.945312 25.964844 18.132812 25.140625 C 17.957031 23.992188 17.378906 22.789062 17.207031 21.492188 C 16.9375 20.867188 17.164062 19.523438 16.285156 20.941406 C 15.964844 22.441406 16.179688 19.101562 16.679688 20.199219 C 17.335938 19.078125 16.441406 19.210938 16.40625 19.367188 C 16.832031 18.417969 16.675781 17.070312 16.292969 17.585938 C 16.519531 16.578125 16.65625 13.886719 15.953125 14.363281 C 16.378906 13.3125 16.761719 9.554688 14.914062 10.988281 C 14.167969 10.996094 12.875 11.257812 12.265625 11.5625 C 14.179688 12.617188 12.070312 11.945312 11.289062 11.773438 C 11.1875 12.753906 10.414062 12.332031 9.449219 12.339844 C 10.992188 12.53125 8.699219 13.917969 7.8125 13.378906 C 6.664062 13.925781 8.804688 15.300781 7.835938 15.722656 C 7.957031 16.363281 6.078125 15.492188 6.226562 16.96875 C 5.109375 16.496094 6.074219 18.71875 6.628906 17.96875 C 8.527344 18.484375 7.964844 19.652344 8.011719 20.761719 C 7.703125 21.414062 6.488281 19.242188 7.742188 19.34375 C 6.753906 17.734375 6.648438 18.757812 5.824219 19.507812 C 5.632812 19.5625 7.921875 20.570312 6.484375 21.070312 C 7.75 21.265625 7.785156 22.371094 8.042969 23.070312 C 8.804688 23.863281 8.648438 22.199219 9.558594 23.148438 C 8.980469 22.300781 6.507812 20.761719 8.5 21.253906 C 8.488281 20.402344 8.140625 19.714844 8.75 19.730469 C 9.355469 18.636719 8.117188 22.425781 9.476562 21.039062 C 9.855469 20.875 9.949219 19.941406 10.625 21.125 C 11.609375 22.09375 10.984375 22.796875 9.59375 21.90625 C 9.839844 22.75 11.453125 23.050781 11.148438 24.371094 C 11.46875 25.527344 11.917969 25.101562 12.308594 25.035156 C 12.613281 26.160156 12.789062 25.332031 12.804688 24.796875 C 14.207031 25.097656 13.878906 25.925781 14.316406 26.503906 C 15.285156 26.945312 12.933594 23.546875 14.59375 25.484375 C 16.339844 27.0625 15.25 27.722656 13.679688 27.46875 C 14.675781 27.390625 14.992188 28.8125 16.234375 28.761719 C 17.367188 29.300781 18.132812 31.367188 16.179688 30.507812 C 15.507812 29.894531 13.109375 29.140625 15.066406 30.300781 C 16.871094 31.140625 18.308594 31.640625 20.050781 32.691406 C 21.296875 33.582031 21.835938 34.601562 22.308594 34.800781 C 21.261719 35.300781 19.152344 34.402344 20.714844 34.128906 C 19.738281 33.949219 18.640625 33.453125 19.574219 34.671875 C 20.371094 35.335938 22.398438 35.265625 22.761719 35.339844 C 22.453125 36.019531 21.921875 36.074219 22.773438 36.125 C 21.824219 36.628906 23.078125 36.707031 23.164062 36.996094 Z M 21.226562 31.53125 C 20.652344 30.929688 20.503906 29.804688 21.125 30.78125 C 21.445312 30.910156 22.148438 32.628906 21.226562 31.53125 Z M 27.53125 35.535156 C 27.886719 35.511719 27.539062 35.808594 27.53125 35.535156 Z M 20.320312 30.054688 C 20.296875 29.148438 20.527344 30.757812 20.320312 30.054688 Z M 19.695312 29.214844 C 18.96875 27.816406 20.605469 29.609375 19.695312 29.214844 Z M 12.105469 23.976562 C 12.53125 23.863281 12.3125 24.707031 12.105469 23.976562 Z M 18.144531 27.25 C 18.40625 26.269531 18.453125 28.074219 18.144531 27.25 Z M 13.878906 24.285156 C 13.578125 23.742188 14.503906 24.792969 13.878906 24.285156 Z M 17.539062 25.457031 C 16.855469 23.921875 18.027344 24.617188 17.691406 25.707031 Z M 11.222656 21.246094 C 10.917969 20.742188 10.410156 19.261719 10.574219 18.8125 C 10.71875 19.546875 12.136719 21.976562 11.269531 19.820312 C 10.308594 18.007812 12.417969 20.40625 12.636719 20.855469 C 12.734375 21.304688 12.042969 20.734375 12.511719 21.789062 C 11.652344 20.585938 12.003906 22.449219 11.222656 21.246094 Z M 9.273438 19.902344 C 9.355469 18.730469 9.71875 20.703125 9.273438 19.902344 Z M 10.152344 20.203125 C 10.570312 19.320312 10.859375 21.4375 10.152344 20.203125 Z M 8.039062 18.570312 C 7.3125 17.847656 6.789062 17.183594 8.074219 18.121094 C 8.570312 18.140625 6.972656 16.609375 8.195312 17.632812 C 9.476562 17.867188 8.828125 19.738281 8.039062 18.570312 Z M 9.148438 18.542969 C 9.570312 18.125 9.371094 18.953125 9.148438 18.542969 Z M 9.832031 18.757812 C 9.191406 17.5625 10.609375 19.261719 9.832031 18.757812 Z M 8.476562 17.464844 C 6.363281 15.582031 11.128906 18.445312 8.820312 17.8125 Z M 14.527344 20.980469 C 13.613281 20.429688 14.28125 17.121094 14.597656 19.386719 C 15.484375 19.097656 14.546875 20.554688 15.207031 20.539062 C 15.105469 21.460938 14.808594 21.789062 14.527344 20.980469 Z M 16.765625 22.304688 C 16.855469 21.304688 16.953125 22.984375 16.765625 22.304688 Z M 16.375 21.917969 C 16.476562 21.492188 16.386719 22.421875 16.375 21.917969 Z M 8.886719 16.847656 C 7.53125 14.972656 12.832031 18.738281 9.757812 17.320312 C 9.4375 17.234375 9.050781 17.207031 8.886719 16.847656 Z M 13.199219 19.132812 C 13.070312 17.554688 13.484375 19.390625 13.199219 19.132812 Z M 16.472656 21.230469 C 16.726562 20.332031 16.492188 21.824219 16.472656 21.230469 Z M 9.097656 16.132812 C 9.902344 15.957031 12.4375 17.546875 10.109375 16.585938 C 9.851562 16.296875 9.300781 16.425781 9.097656 16.132812 Z M 16.023438 19.582031 C 16.109375 17.96875 16.503906 18.621094 16.027344 19.8125 Z M 9.695312 15.570312 C 10.027344 15.089844 8.824219 13.390625 9.871094 14.960938 C 10.320312 15.320312 11.175781 15.5625 10.421875 15.714844 C 11.609375 16.761719 10.132812 16 9.695312 15.570312 Z M 15.679688 19.082031 C 15.90625 17.242188 15.882812 20.152344 15.679688 19.082031 Z M 9.007812 13.875 C 9.261719 13.765625 9.144531 14.207031 9.007812 13.875 Z M 10.570312 14.804688 C 10.972656 13.960938 11.3125 15.742188 10.570312 14.804688 Z M 14.972656 17.253906 C 14.96875 16.929688 15.054688 17.722656 14.972656 17.253906 Z M 14.714844 16.6875 C 14.105469 15.179688 15.285156 17.484375 14.714844 16.6875 Z M 14.339844 15.699219 C 14.242188 15.074219 14.691406 16.480469 14.339844 15.699219 Z M 14.953125 14.707031 C 14.535156 13.96875 15.484375 11.453125 15.589844 13.011719 C 15.144531 14.230469 15.460938 14.910156 15.769531 13.277344 C 16.339844 11.992188 15.648438 15.8125 14.953125 14.707031 Z M 15.582031 10.964844 C 15.765625 10.738281 15.621094 11.234375 15.582031 10.964844 Z M 14.535156 31.609375 C 14.285156 31.390625 14.5625 31.746094 14.535156 31.609375 Z M 16.691406 32.699219 C 17.890625 33.007812 17.886719 32.515625 16.800781 32.367188 C 16.214844 31.824219 14.375 31.246094 16.023438 32.300781 C 16.132812 32.574219 16.476562 32.570312 16.691406 32.699219 Z M 12.429688 29.867188 C 13.089844 30.363281 14.921875 31.269531 13.371094 30.058594 C 13.894531 29.453125 12.371094 29.128906 12.875 28.71875 C 11.59375 27.933594 11.863281 28.003906 12.761719 28.03125 C 11.21875 27.339844 12.988281 27.390625 12.902344 27.039062 C 12.308594 26.921875 9.945312 25.988281 11.335938 27.113281 C 9.921875 26.394531 11 27.382812 10.574219 27.277344 C 9.125 26.886719 11.855469 28.378906 10.34375 28.007812 C 11.171875 28.664062 12.570312 29.6875 10.691406 28.703125 C 10.445312 29.058594 12.039062 29.597656 12.429688 29.867188 Z M 14.6875 31.167969 C 17.429688 32.050781 13.339844 30.085938 14.6875 31.167969 Z M 26.242188 38.167969 C 26.277344 37.621094 25.867188 38.632812 26.242188 38.167969 Z M 27.429688 38.667969 C 28.0625 38.054688 27.457031 39.644531 28.480469 38.515625 C 28.492188 37.707031 28.449219 37.234375 27.300781 38.210938 C 26.984375 38.386719 26.847656 39.132812 27.429688 38.667969 Z M 8.574219 26.828125 C 8.382812 26.0625 7.210938 26.066406 8.574219 26.828125 Z M 9.84375 27.65625 C 9.371094 26.875 8.164062 26.949219 9.84375 27.65625 Z M 17.058594 32.007812 C 17.761719 32.632812 20.292969 32.46875 17.914062 32.085938 C 17.5625 31.566406 15.675781 31.691406 17.058594 32.007812 Z M 26.976562 38.136719 C 28.0625 37.226562 25.925781 38.539062 26.976562 38.136719 Z M 29.234375 39.683594 C 29.242188 39.390625 28.765625 39.8125 29.234375 39.683594 Z M 29.234375 39.273438 C 30.4375 38.003906 28.074219 39.347656 29.234375 39.273438 Z M 5.457031 24.214844 C 4.433594 22.753906 4.820312 22.097656 3.832031 20.90625 C 3.644531 19.996094 2.140625 17.925781 3.054688 20.117188 C 3.890625 21.398438 4.140625 23.382812 5.457031 24.214844 Z M 28.859375 38.871094 C 31.070312 37.445312 27.953125 38.25 28.859375 38.871094 Z M 30.546875 39.53125 C 31.652344 38.582031 29.84375 39.332031 30.546875 39.53125 Z M 8.199219 25.210938 C 8.515625 24.742188 7.382812 25.152344 8.199219 25.210938 Z M 30.195312 39.078125 C 31.265625 38.390625 29.945312 38.496094 30 39.144531 Z M 15.660156 29.921875 C 15.625 29.453125 15.09375 29.957031 15.660156 29.921875 Z M 16.554688 30.4375 C 16.269531 29.859375 16.117188 30.527344 16.554688 30.4375 Z M 31.914062 39.546875 C 33.285156 38.558594 31.082031 39.355469 31.625 39.734375 Z M 31.386719 39.292969 C 32.503906 38.355469 30.207031 39.707031 31.386719 39.292969 Z M 34.070312 41.082031 C 34.820312 40.578125 33.160156 40.917969 34.070312 41.082031 Z M 8.886719 24.871094 C 9.894531 25.097656 12.90625 27.347656 11.128906 25.027344 C 10.21875 24.757812 10.765625 22.53125 9.835938 22.925781 C 10.460938 23.96875 10.347656 24.410156 9.039062 23.757812 C 7.394531 22.953125 8.117188 24.152344 8.4375 24.484375 C 8 24.582031 9.015625 24.863281 8.886719 24.871094 Z M 4.304688 21.253906 C 4.484375 20.507812 2.644531 17.15625 3.4375 19.574219 C 3.722656 20.078125 3.691406 21.039062 4.304688 21.253906 Z M 12.71875 26.441406 C 12.199219 26.007812 12.691406 26.375 12.71875 26.441406 Z M 13.992188 26.738281 C 13.992188 25.949219 12.582031 26.417969 13.992188 26.738281 Z M 25.046875 33.707031 C 24.835938 33.167969 24.214844 33.695312 25.046875 33.707031 Z M 25.578125 34.09375 C 25.496094 33.789062 25.269531 34.152344 25.578125 34.09375 Z M 29.957031 36.851562 C 30.378906 36.542969 29.433594 36.8125 29.957031 36.851562 Z M 6.59375 21.835938 C 7.800781 21.371094 5.300781 21.503906 6.59375 21.835938 Z M 24.074219 32.851562 C 24.058594 32.070312 23.304688 33.042969 24.074219 32.851562 Z M 6.117188 20.726562 C 6.890625 20.464844 5.398438 20.558594 6.117188 20.726562 Z M 8.363281 21.816406 C 8.351562 21.558594 8.128906 21.914062 8.363281 21.816406 Z M 35.773438 38.625 C 36.769531 38.421875 39.039062 39.132812 39.40625 38.363281 C 38.195312 38.332031 35.222656 37.507812 35.082031 38.558594 L 35.347656 38.597656 Z M 9.078125 21.996094 C 9.097656 21.207031 8.464844 21.964844 9.078125 21.996094 Z M 3.171875 17.898438 C 2.902344 16.390625 2.152344 17.667969 3.171875 17.898438 Z M 4.578125 18.25 C 4.597656 17.769531 3.289062 17.816406 4.578125 18.25 Z M 5.382812 18.648438 C 5.152344 18.460938 5.203125 18.882812 5.382812 18.648438 Z M 10.449219 21.898438 C 10.691406 21.675781 9.886719 21.734375 10.449219 21.898438 Z M 4.847656 17.757812 C 4.714844 16.617188 3.214844 17.585938 4.847656 17.757812 Z M 1.960938 15.882812 C 1.917969 15.355469 1.679688 16.078125 1.960938 15.882812 Z M 2.390625 15.558594 C 2.320312 14.933594 2.019531 15.636719 2.390625 15.558594 Z M 4.761719 16.972656 C 5.769531 16.578125 2.933594 16.15625 4.558594 16.898438 Z M 36.535156 36.601562 C 37.179688 36.011719 35.722656 36.417969 36.535156 36.601562 Z M 40.375 38.589844 C 40.632812 37.828125 39.726562 38.6875 40.375 38.589844 Z M 5.007812 15.730469 C 5.113281 14.992188 4.210938 15.875 5.007812 15.730469 Z M 1.628906 13.46875 C 1.445312 12.425781 1.472656 10.601562 3.207031 11.21875 C 0.890625 11.675781 4.8125 14.097656 4.316406 12.1875 C 5.289062 12.234375 6.222656 11.609375 5.710938 12.554688 C 7.628906 12.34375 8.960938 10.679688 10.8125 10.914062 C 12.257812 10.722656 13.835938 10.578125 15.394531 9.996094 C 16.671875 9.90625 17.902344 8.527344 17.203125 7.707031 C 15.460938 7.5625 13.632812 7.78125 11.703125 8.164062 C 9.566406 8.609375 7.625 9.453125 5.46875 9.816406 C 3.367188 10.097656 5.890625 10.589844 5.289062 10.703125 C 4.191406 11.082031 6.597656 11.339844 5.148438 11.742188 C 4.25 11.570312 3.320312 11.265625 3.699219 10.320312 C 1.691406 10.582031 -0.0820312 11.417969 1.507812 13.464844 L 1.628906 13.464844 Z M 6.480469 10.996094 C 6.953125 9.253906 9.007812 12.425781 7.253906 11.226562 C 7.046875 11.070312 6.699219 10.941406 6.480469 10.996094 Z M 6.570312 10.152344 C 7.253906 9.644531 6.933594 10.4375 6.570312 10.152344 Z M 7.4375 10.167969 C 7.5 9.367188 9.417969 10.589844 7.753906 10.453125 Z M 8.621094 9.691406 C 9.050781 9.183594 8.746094 10.140625 8.621094 9.691406 Z M 8.921875 9.488281 C 9.640625 8.621094 13 8.9375 10.542969 9.402344 C 9.882812 8.90625 9.378906 9.695312 8.921875 9.488281 Z M 13.300781 8.8125 C 13.191406 6.449219 15.476562 9.652344 13.300781 8.8125 Z M 14.546875 8.804688 C 14.996094 7.613281 16.308594 8.328125 14.757812 8.566406 C 14.789062 8.691406 14.710938 9.179688 14.546875 8.804688 Z M 4.515625 15.121094 C 5.875 14.289062 3.074219 14.398438 4.515625 15.121094 Z M 5.519531 15.394531 C 5.996094 14.890625 4.484375 15.191406 5.519531 15.394531 Z M 2.5625 13.296875 C 3.335938 12.703125 1.644531 13.074219 2.5625 13.296875 Z M 42.640625 38.371094 C 42.664062 37.679688 42.050781 38.683594 42.640625 38.371094 Z M 38.570312 35.59375 C 38.683594 34.796875 38.046875 35.664062 38.570312 35.59375 Z M 43.761719 38.640625 C 44.84375 38.644531 47.046875 38.304688 44.6875 38.304688 C 44.316406 38.363281 42.53125 38.351562 43.761719 38.640625 Z M 6.402344 14.910156 C 7.28125 14.851562 7.777344 13.941406 6.230469 13.992188 C 3.839844 13.746094 8.339844 14.8125 5.925781 14.507812 C 5.601562 14.722656 6.382812 14.96875 6.402344 14.910156 Z M 7.175781 15.300781 C 7.082031 14.738281 6.90625 15.601562 7.175781 15.300781 Z M 8.09375 12.855469 C 8.472656 12.382812 7.566406 12.730469 8.09375 12.855469 Z M 5.171875 7.976562 C 6.742188 7.445312 8.882812 6.847656 9.621094 8.242188 C 8.867188 7.332031 9.320312 6.441406 10.027344 7.765625 C 11.035156 9.105469 11.535156 7.15625 10.882812 6.707031 C 11.628906 7.632812 12.476562 8.070312 11.382812 6.765625 C 12.570312 5.335938 9.003906 6.953125 8.191406 6.9375 C 7.800781 7.113281 4.164062 7.867188 5.171875 7.976562 Z M 6.089844 6.21875 C 6.984375 5.546875 9.179688 6.621094 7.773438 5.550781 C 7.632812 5.429688 4.683594 6.363281 6.089844 6.21875 Z M 9.347656 6.355469 C 10.390625 6.378906 8.898438 4.949219 10.144531 5.597656 C 9.941406 4.929688 8.691406 4.804688 8.082031 4.539062 C 7.738281 5.148438 8.785156 6.363281 9.347656 6.355469 Z M 6.664062 3.398438 C 7.023438 2.910156 6.027344 3.648438 6.664062 3.398438 Z M 7.996094 3.714844 C 9.679688 3.492188 7.5625 2.992188 7.65625 3.699219 Z M 5.507812 1.773438 C 4.320312 0.222656 7.738281 2.03125 6.535156 0.410156 C 5.519531 -0.394531 4.542969 1.320312 5.507812 1.773438 Z M 20.730469 9.96875 C 21.273438 9.007812 18.484375 8.671875 20.363281 9.628906 C 20.539062 9.6875 20.5 10.039062 20.730469 9.96875 Z M 9.683594 45.863281 C 9.566406 46.339844 9.488281 47.136719 9.460938 48.257812 C 9.460938 48.476562 9.363281 48.589844 9.164062 48.589844 C 8.96875 48.589844 8.828125 48.492188 8.75 48.300781 C 8.539062 47.78125 8.335938 47.421875 8.144531 47.214844 C 7.917969 46.976562 7.613281 46.832031 7.238281 46.777344 C 6.835938 46.714844 5.828125 46.683594 4.222656 46.683594 C 3.851562 46.683594 3.613281 46.722656 3.5 46.800781 C 3.425781 46.851562 3.390625 46.957031 3.390625 47.121094 L 3.390625 51.9375 C 3.390625 52.097656 3.496094 52.175781 3.699219 52.167969 C 4.332031 52.164062 5.246094 52.121094 6.441406 52.042969 C 6.675781 52.015625 6.835938 51.9375 6.917969 51.8125 C 7 51.6875 7.078125 51.371094 7.15625 50.851562 C 7.203125 50.570312 7.371094 50.457031 7.65625 50.523438 C 7.894531 50.570312 8 50.679688 7.964844 50.851562 C 7.765625 51.816406 7.703125 53.070312 7.773438 54.617188 C 7.777344 54.800781 7.660156 54.898438 7.421875 54.914062 C 7.222656 54.933594 7.097656 54.828125 7.046875 54.59375 C 6.863281 53.710938 6.523438 53.234375 6.023438 53.175781 C 5.523438 53.113281 4.707031 53.082031 3.582031 53.082031 C 3.453125 53.082031 3.390625 53.128906 3.390625 53.222656 L 3.390625 58.007812 C 3.390625 58.363281 3.523438 58.601562 3.785156 58.730469 C 3.992188 58.835938 4.433594 58.929688 5.113281 59.019531 C 5.460938 59.054688 5.613281 59.207031 5.570312 59.476562 C 5.527344 59.710938 5.21875 59.800781 4.636719 59.75 C 2.957031 59.617188 1.570312 59.621094 0.476562 59.773438 C 0.171875 59.816406 0.0195312 59.691406 0.0195312 59.398438 C 0.0195312 59.214844 0.171875 59.109375 0.476562 59.082031 C 1.171875 59.003906 1.519531 58.394531 1.519531 57.253906 L 1.519531 48.148438 C 1.519531 47.683594 1.4375 47.324219 1.269531 47.070312 C 1.105469 46.820312 0.792969 46.589844 0.339844 46.386719 C 0.0546875 46.257812 -0.0507812 46.085938 0.0195312 45.863281 C 0.0546875 45.730469 0.113281 45.65625 0.191406 45.640625 C 0.261719 45.621094 0.449219 45.636719 0.753906 45.683594 C 1.199219 45.753906 2.253906 45.792969 3.910156 45.792969 C 5.867188 45.792969 7.558594 45.746094 8.984375 45.664062 C 9.460938 45.636719 9.695312 45.675781 9.695312 45.78125 C 9.695312 45.808594 9.695312 45.835938 9.683594 45.863281 Z M 16.578125 59.363281 C 16.578125 59.644531 16.421875 59.769531 16.101562 59.734375 C 15.125 59.640625 13.914062 59.65625 12.464844 59.777344 C 12.175781 59.804688 11.996094 59.796875 11.929688 59.757812 C 11.863281 59.710938 11.828125 59.597656 11.828125 59.40625 C 11.828125 59.234375 12.019531 59.089844 12.40625 58.972656 C 12.792969 58.855469 12.988281 58.507812 12.988281 57.925781 L 12.988281 48.304688 C 12.988281 47.730469 12.902344 47.308594 12.738281 47.039062 C 12.570312 46.769531 12.277344 46.5625 11.859375 46.410156 C 11.640625 46.332031 11.527344 46.222656 11.527344 46.082031 C 11.527344 45.871094 11.6875 45.710938 12.007812 45.605469 C 12.488281 45.449219 12.992188 45.207031 13.507812 44.878906 C 13.933594 44.625 14.203125 44.5 14.316406 44.5 C 14.578125 44.5 14.710938 44.679688 14.710938 45.039062 C 14.710938 45.011719 14.695312 45.367188 14.667969 46.105469 C 14.644531 46.804688 14.640625 47.496094 14.644531 48.175781 L 14.6875 57.671875 C 14.6875 58.105469 14.792969 58.417969 15.007812 58.613281 C 15.21875 58.808594 15.585938 58.9375 16.101562 59 C 16.421875 59.035156 16.578125 59.15625 16.578125 59.363281 Z M 26.195312 58.734375 C 26.195312 58.882812 25.925781 59.109375 25.382812 59.410156 C 24.839844 59.710938 24.40625 59.863281 24.082031 59.863281 C 23.804688 59.863281 23.558594 59.726562 23.347656 59.457031 C 23.136719 59.1875 22.984375 59.054688 22.902344 59.054688 C 22.835938 59.054688 22.5 59.199219 21.890625 59.488281 C 21.28125 59.78125 20.667969 59.925781 20.050781 59.925781 C 19.46875 59.925781 18.984375 59.757812 18.59375 59.417969 C 18.167969 59.039062 17.957031 58.53125 17.957031 57.882812 C 17.957031 56.65625 19.359375 55.777344 22.167969 55.246094 C 22.648438 55.15625 22.894531 54.960938 22.902344 54.664062 L 22.921875 53.984375 C 22.964844 52.820312 22.449219 52.238281 21.378906 52.238281 C 21.074219 52.238281 20.785156 52.511719 20.511719 53.058594 C 20.242188 53.605469 19.847656 53.898438 19.339844 53.941406 C 18.757812 53.996094 18.464844 53.75 18.464844 53.207031 C 18.464844 52.867188 18.898438 52.46875 19.765625 52.015625 C 20.671875 51.542969 21.542969 51.300781 22.378906 51.300781 C 23.816406 51.300781 24.53125 51.988281 24.515625 53.355469 L 24.472656 57.734375 C 24.464844 58.195312 24.664062 58.425781 25.058594 58.425781 C 25.136719 58.425781 25.285156 58.410156 25.503906 58.375 C 25.726562 58.339844 25.855469 58.320312 25.890625 58.320312 C 26.09375 58.320312 26.195312 58.457031 26.195312 58.734375 Z M 22.921875 56.3125 C 22.929688 56.132812 22.890625 56.015625 22.800781 55.960938 C 22.710938 55.902344 22.570312 55.890625 22.378906 55.929688 C 20.671875 56.234375 19.816406 56.789062 19.816406 57.597656 C 19.816406 58.414062 20.257812 58.820312 21.144531 58.820312 C 21.5 58.820312 21.867188 58.753906 22.242188 58.621094 C 22.679688 58.460938 22.902344 58.273438 22.902344 58.054688 Z M 34.101562 57.511719 C 34.101562 58.261719 33.8125 58.859375 33.234375 59.304688 C 32.65625 59.746094 31.867188 59.96875 30.871094 59.96875 C 30.203125 59.96875 29.535156 59.898438 28.871094 59.757812 C 28.296875 59.628906 27.964844 59.511719 27.871094 59.40625 C 27.8125 59.304688 27.785156 58.820312 27.785156 57.949219 C 27.785156 57.570312 27.871094 57.378906 28.039062 57.363281 C 28.210938 57.34375 28.355469 57.433594 28.476562 57.640625 C 29.007812 58.566406 29.867188 59.03125 31.050781 59.03125 C 32.046875 59.03125 32.546875 58.683594 32.546875 57.992188 C 32.546875 57.6875 32.433594 57.429688 32.207031 57.226562 C 31.960938 56.992188 31.480469 56.71875 30.761719 56.40625 C 29.726562 55.945312 29.035156 55.542969 28.691406 55.195312 C 28.3125 54.824219 28.125 54.332031 28.125 53.703125 C 28.125 52.941406 28.421875 52.34375 29.007812 51.917969 C 29.554688 51.507812 30.285156 51.300781 31.199219 51.300781 C 31.773438 51.300781 32.296875 51.347656 32.773438 51.441406 C 33.28125 51.535156 33.546875 51.648438 33.570312 51.78125 C 33.625 52.179688 33.742188 52.753906 33.921875 53.503906 C 33.941406 53.59375 33.839844 53.667969 33.625 53.726562 C 33.390625 53.777344 33.230469 53.738281 33.15625 53.609375 C 32.59375 52.695312 31.886719 52.238281 31.027344 52.238281 C 30.054688 52.238281 29.570312 52.550781 29.570312 53.175781 C 29.570312 53.523438 29.703125 53.796875 29.964844 54.003906 C 30.199219 54.179688 30.746094 54.457031 31.613281 54.832031 C 32.519531 55.222656 33.136719 55.574219 33.464844 55.882812 C 33.886719 56.289062 34.101562 56.832031 34.101562 57.511719 Z M 46.609375 59.371094 C 46.609375 59.621094 46.441406 59.75 46.109375 59.765625 C 45.613281 59.773438 44.964844 59.808594 44.164062 59.875 C 43.765625 59.949219 43.484375 59.902344 43.3125 59.722656 C 42.191406 58.519531 41.242188 57.257812 40.460938 55.9375 C 40.398438 55.824219 40.320312 55.769531 40.21875 55.769531 C 40.097656 55.769531 39.890625 55.875 39.59375 56.089844 C 39.257812 56.269531 39.089844 56.535156 39.089844 56.875 C 39.089844 57.113281 39.097656 57.460938 39.113281 57.917969 C 39.128906 58.367188 39.242188 58.667969 39.453125 58.808594 C 39.601562 58.90625 39.945312 58.988281 40.484375 59.042969 C 40.820312 59.085938 40.984375 59.210938 40.984375 59.417969 C 40.984375 59.578125 40.957031 59.679688 40.90625 59.71875 C 40.851562 59.757812 40.710938 59.765625 40.484375 59.746094 C 39.777344 59.679688 38.578125 59.714844 36.890625 59.851562 C 36.464844 59.886719 36.238281 59.832031 36.199219 59.691406 C 36.183594 59.640625 36.179688 59.570312 36.179688 59.480469 C 36.179688 59.257812 36.394531 59.09375 36.828125 58.980469 C 37.21875 58.878906 37.414062 58.421875 37.414062 57.605469 L 37.414062 48.3125 C 37.414062 47.734375 37.355469 47.328125 37.242188 47.101562 C 37.085938 46.8125 36.757812 46.585938 36.265625 46.421875 C 36.03125 46.34375 35.914062 46.234375 35.914062 46.09375 C 35.914062 45.886719 36.078125 45.730469 36.414062 45.613281 C 36.949219 45.4375 37.460938 45.191406 37.933594 44.878906 C 38.324219 44.628906 38.5625 44.5 38.65625 44.5 C 38.945312 44.5 39.089844 44.679688 39.089844 45.050781 C 39.089844 45.003906 39.089844 45.355469 39.082031 46.105469 C 39.074219 46.796875 39.070312 47.492188 39.070312 48.1875 L 39.089844 54.84375 C 39.089844 55.027344 39.140625 55.121094 39.242188 55.121094 C 39.347656 55.121094 39.511719 55.027344 39.730469 54.84375 C 40.320312 54.382812 41.042969 53.78125 41.898438 53.035156 C 42.070312 52.859375 42.15625 52.71875 42.15625 52.609375 C 42.15625 52.421875 41.867188 52.285156 41.292969 52.207031 C 41.046875 52.179688 40.929688 52.039062 40.941406 51.792969 C 40.964844 51.542969 41.089844 51.4375 41.3125 51.472656 C 41.824219 51.542969 42.570312 51.582031 43.546875 51.589844 C 44.226562 51.597656 44.902344 51.601562 45.578125 51.601562 C 45.796875 51.605469 45.90625 51.738281 45.90625 51.992188 C 45.90625 52.234375 45.734375 52.367188 45.386719 52.386719 C 44.839844 52.410156 44.328125 52.53125 43.84375 52.761719 C 43.171875 53.066406 42.453125 53.597656 41.6875 54.367188 C 41.628906 54.40625 41.601562 54.460938 41.601562 54.523438 C 41.601562 54.625 41.722656 54.863281 41.960938 55.238281 C 42.847656 56.582031 43.683594 57.601562 44.472656 58.289062 C 44.972656 58.71875 45.445312 58.9375 45.886719 58.9375 C 46.210938 58.9375 46.414062 58.960938 46.492188 59.007812 C 46.570312 59.054688 46.609375 59.175781 46.609375 59.371094 Z M 46.609375 59.371094 "/>
</g>
</svg>
