<?xml version="1.0" encoding="UTF-8"?>
<svg xmlns="http://www.w3.org/2000/svg" xmlns:xlink="http://www.w3.org/1999/xlink" width="32pt" height="32pt" viewBox="0 0 32 32" version="1.1">
<g id="surface1">
<path style=" stroke:none;fill-rule:evenodd;fill:rgb(40%,80%,100%);fill-opacity:1;" d="M 13.570312 23.886719 C 14.417969 26.4375 17.964844 26.535156 18.757812 23.886719 C 19.695312 24.75 22.480469 24.921875 23.511719 25.515625 C 23.835938 25.699219 24.132812 25.933594 24.367188 26.257812 C 24.527344 26.472656 24.742188 26.871094 24.902344 27.3125 L 7.429688 27.3125 C 7.585938 26.871094 7.800781 26.472656 7.957031 26.257812 C 8.195312 25.933594 8.492188 25.699219 8.820312 25.515625 C 9.851562 24.921875 12.632812 24.75 13.570312 23.886719 Z M 12.980469 4.265625 L 19.351562 4.265625 C 19.625 4.265625 19.851562 4.492188 19.851562 4.773438 L 19.851562 9.351562 C 19.851562 9.632812 19.625 9.863281 19.351562 9.863281 L 12.980469 9.863281 C 12.703125 9.863281 12.484375 9.632812 12.484375 9.351562 L 12.484375 4.773438 C 12.484375 4.492188 12.703125 4.265625 12.980469 4.265625 Z M 19.550781 5.691406 L 12.800781 5.691406 L 12.800781 9.402344 C 12.800781 9.441406 12.8125 9.472656 12.835938 9.503906 C 12.867188 9.527344 12.898438 9.542969 12.9375 9.542969 L 19.417969 9.542969 C 19.453125 9.542969 19.484375 9.527344 19.515625 9.503906 C 19.539062 9.472656 19.550781 9.441406 19.550781 9.402344 Z M 18.878906 4.839844 C 19.015625 4.839844 19.125 4.953125 19.125 5.089844 C 19.125 5.230469 19.015625 5.34375 18.878906 5.34375 C 18.742188 5.34375 18.632812 5.230469 18.632812 5.089844 C 18.632812 4.953125 18.742188 4.839844 18.878906 4.839844 Z M 17.207031 4.839844 C 17.34375 4.839844 17.453125 4.953125 17.453125 5.089844 C 17.453125 5.230469 17.34375 5.34375 17.207031 5.34375 C 17.070312 5.34375 16.960938 5.230469 16.960938 5.089844 C 16.960938 4.953125 17.070312 4.839844 17.207031 4.839844 Z M 18.039062 4.839844 C 18.179688 4.839844 18.285156 4.953125 18.285156 5.089844 C 18.285156 5.230469 18.179688 5.34375 18.039062 5.34375 C 17.902344 5.34375 17.792969 5.230469 17.792969 5.089844 C 17.792969 4.953125 17.902344 4.839844 18.039062 4.839844 Z M 15.253906 7.257812 L 14.441406 7.570312 L 15.253906 7.886719 L 15.253906 8.617188 L 13.992188 7.886719 L 13.992188 7.257812 L 15.253906 6.523438 Z M 18.339844 7.257812 L 18.339844 7.886719 L 17.078125 8.617188 L 17.078125 7.886719 L 17.890625 7.570312 L 17.078125 7.257812 L 17.078125 6.519531 Z M 16.152344 8.820312 L 15.617188 8.820312 L 16.277344 6.175781 L 16.816406 6.175781 Z M 30.808594 18.890625 C 30.824219 18.890625 30.828125 18.890625 30.84375 18.890625 C 30.90625 18.777344 30.964844 18.65625 31.023438 18.523438 C 31.023438 18.519531 31.023438 18.519531 31.023438 18.519531 C 31.105469 18.324219 31.167969 18.117188 31.207031 17.910156 C 31.238281 17.746094 31.261719 17.578125 31.269531 17.410156 L 30.300781 17.410156 C 30.285156 17.910156 30.140625 18.40625 29.863281 18.890625 Z M 30.640625 19.203125 L 29.671875 19.203125 C 29.375 19.640625 28.980469 20.074219 28.484375 20.5 C 28.554688 20.488281 28.640625 20.476562 28.710938 20.460938 C 28.921875 20.421875 29.121094 20.359375 29.316406 20.269531 C 29.511719 20.179688 29.699219 20.082031 29.867188 19.96875 C 30.039062 19.847656 30.195312 19.71875 30.339844 19.570312 C 30.449219 19.453125 30.550781 19.332031 30.640625 19.203125 Z M 27.652344 20.5 C 27.15625 20.074219 26.757812 19.640625 26.460938 19.203125 L 25.488281 19.203125 C 25.582031 19.332031 25.6875 19.453125 25.796875 19.574219 C 25.945312 19.71875 26.101562 19.851562 26.269531 19.96875 C 26.445312 20.082031 26.625 20.183594 26.820312 20.269531 C 26.828125 20.273438 26.828125 20.273438 26.828125 20.28125 C 27.019531 20.359375 27.214844 20.425781 27.425781 20.464844 C 27.5 20.476562 27.574219 20.488281 27.652344 20.5 Z M 25.289062 18.890625 L 26.265625 18.890625 C 25.996094 18.40625 25.847656 17.90625 25.828125 17.410156 L 24.863281 17.410156 C 24.871094 17.578125 24.890625 17.746094 24.921875 17.910156 C 24.960938 18.121094 25.023438 18.328125 25.109375 18.527344 C 25.160156 18.65625 25.222656 18.773438 25.289062 18.890625 Z M 24.863281 17.09375 L 25.835938 17.09375 C 25.871094 16.601562 26.03125 16.105469 26.316406 15.609375 L 25.289062 15.609375 C 25.226562 15.726562 25.164062 15.847656 25.109375 15.976562 C 25.109375 15.976562 25.109375 15.980469 25.101562 15.980469 C 25.023438 16.175781 24.960938 16.378906 24.921875 16.589844 C 24.890625 16.75 24.867188 16.917969 24.863281 17.09375 Z M 25.488281 15.292969 L 26.515625 15.292969 C 26.808594 14.863281 27.191406 14.429688 27.671875 13.992188 C 27.585938 14 27.503906 14.015625 27.421875 14.035156 C 27.210938 14.078125 27.011719 14.140625 26.816406 14.226562 C 26.621094 14.3125 26.4375 14.417969 26.265625 14.53125 C 26.097656 14.644531 25.941406 14.777344 25.792969 14.929688 C 25.6875 15.042969 25.578125 15.164062 25.488281 15.292969 Z M 28.453125 13.992188 C 28.9375 14.429688 29.328125 14.863281 29.613281 15.292969 L 30.640625 15.292969 C 30.546875 15.167969 30.445312 15.046875 30.332031 14.929688 C 30.183594 14.777344 30.03125 14.644531 29.859375 14.53125 C 29.6875 14.417969 29.511719 14.3125 29.308594 14.226562 C 29.308594 14.226562 29.304688 14.226562 29.304688 14.222656 C 29.109375 14.140625 28.914062 14.074219 28.707031 14.035156 C 28.625 14.019531 28.539062 14.003906 28.453125 13.992188 Z M 30.84375 15.609375 L 29.816406 15.609375 C 30.101562 16.105469 30.265625 16.601562 30.296875 17.09375 L 31.269531 17.09375 C 31.257812 16.917969 31.238281 16.75 31.207031 16.589844 C 31.167969 16.378906 31.105469 16.171875 31.023438 15.976562 C 30.964844 15.847656 30.910156 15.726562 30.84375 15.609375 Z M 27.355469 13.726562 C 27.585938 13.675781 27.820312 13.652344 28.0625 13.652344 C 28.308594 13.652344 28.539062 13.675781 28.769531 13.726562 C 28.996094 13.769531 29.214844 13.835938 29.429688 13.933594 C 29.433594 13.933594 29.433594 13.933594 29.4375 13.9375 C 29.644531 14.03125 29.847656 14.144531 30.039062 14.265625 C 30.222656 14.394531 30.394531 14.539062 30.550781 14.707031 C 30.710938 14.867188 30.855469 15.046875 30.980469 15.234375 C 31.105469 15.425781 31.210938 15.632812 31.304688 15.851562 C 31.394531 16.070312 31.464844 16.296875 31.507812 16.523438 C 31.554688 16.761719 31.578125 17 31.578125 17.25 C 31.578125 17.496094 31.554688 17.734375 31.507812 17.972656 C 31.464844 18.203125 31.398438 18.425781 31.304688 18.640625 C 31.304688 18.640625 31.304688 18.648438 31.304688 18.652344 C 31.210938 18.867188 31.101562 19.070312 30.980469 19.261719 C 30.855469 19.453125 30.710938 19.628906 30.550781 19.796875 C 30.390625 19.953125 30.21875 20.101562 30.03125 20.230469 C 29.84375 20.359375 29.644531 20.46875 29.433594 20.558594 C 29.21875 20.652344 28.996094 20.722656 28.769531 20.773438 C 28.539062 20.820312 28.308594 20.84375 28.0625 20.84375 C 27.820312 20.84375 27.585938 20.820312 27.355469 20.773438 C 27.128906 20.726562 26.917969 20.65625 26.703125 20.5625 C 26.699219 20.5625 26.695312 20.558594 26.695312 20.558594 C 26.480469 20.46875 26.28125 20.355469 26.09375 20.226562 C 25.910156 20.101562 25.734375 19.953125 25.578125 19.789062 C 25.414062 19.628906 25.273438 19.449219 25.148438 19.261719 C 25.023438 19.070312 24.914062 18.863281 24.824219 18.648438 C 24.734375 18.429688 24.667969 18.203125 24.621094 17.96875 C 24.578125 17.734375 24.550781 17.496094 24.550781 17.246094 C 24.550781 17 24.578125 16.761719 24.621094 16.523438 C 24.664062 16.292969 24.734375 16.074219 24.824219 15.851562 C 24.824219 15.851562 24.824219 15.851562 24.828125 15.847656 C 24.917969 15.625 25.027344 15.421875 25.152344 15.234375 C 25.273438 15.042969 25.421875 14.863281 25.578125 14.703125 C 25.734375 14.539062 25.910156 14.394531 26.097656 14.265625 C 26.28125 14.136719 26.484375 14.023438 26.695312 13.933594 C 26.90625 13.84375 27.128906 13.773438 27.355469 13.726562 Z M 28.21875 14.199219 L 28.21875 15.292969 L 29.238281 15.292969 C 28.972656 14.929688 28.632812 14.5625 28.21875 14.199219 Z M 28.21875 15.609375 L 28.21875 17.09375 L 29.988281 17.09375 C 29.945312 16.605469 29.769531 16.109375 29.453125 15.609375 Z M 28.21875 17.410156 L 28.21875 18.890625 L 29.511719 18.890625 C 29.8125 18.394531 29.976562 17.902344 29.992188 17.410156 Z M 28.21875 19.203125 L 28.21875 20.3125 C 28.660156 19.945312 29.015625 19.578125 29.292969 19.203125 Z M 27.910156 20.3125 L 27.910156 19.203125 L 26.84375 19.203125 C 27.113281 19.574219 27.472656 19.945312 27.910156 20.3125 Z M 27.910156 18.890625 L 27.910156 17.410156 L 26.136719 17.410156 C 26.15625 17.902344 26.320312 18.394531 26.621094 18.890625 Z M 27.910156 17.09375 L 27.910156 15.609375 L 26.671875 15.609375 C 26.359375 16.109375 26.179688 16.605469 26.140625 17.09375 Z M 27.910156 15.292969 L 27.910156 14.199219 C 27.5 14.5625 27.160156 14.929688 26.890625 15.292969 Z M 2.421875 17.25 L 1.28125 15.558594 C 1.484375 15.3125 1.660156 15.046875 1.808594 14.773438 C 1.96875 14.484375 2.101562 14.191406 2.210938 13.878906 L 4.21875 14.070312 Z M 2.796875 17.480469 L 4.601562 14.289062 L 7.710938 16.121094 L 7.460938 16.558594 L 4.988281 15.097656 C 4.855469 15.019531 4.679688 15.066406 4.605469 15.203125 C 4.523438 15.339844 4.574219 15.515625 4.703125 15.601562 L 7.179688 17.058594 L 6.949219 17.46875 L 4.472656 16.007812 C 4.34375 15.929688 4.164062 15.976562 4.085938 16.109375 C 4.007812 16.246094 4.058594 16.425781 4.191406 16.503906 L 6.664062 17.964844 L 6.429688 18.371094 L 3.960938 16.914062 C 3.828125 16.832031 3.652344 16.882812 3.574219 17.019531 C 3.5 17.15625 3.546875 17.332031 3.675781 17.410156 L 6.152344 18.867188 L 5.90625 19.304688 Z M 0.890625 14.984375 L 0 13.65625 L 1.535156 13.8125 C 1.449219 14.03125 1.347656 14.242188 1.238281 14.445312 C 1.140625 14.632812 1.023438 14.8125 0.890625 14.984375 Z M 4.464844 26.386719 C 4.59375 26.6875 4.464844 27.035156 4.164062 27.171875 C 3.875 27.304688 3.53125 27.171875 3.398438 26.871094 C 3.078125 26.121094 2.808594 25.351562 2.609375 24.542969 C 2.417969 23.757812 2.289062 22.945312 2.230469 22.109375 C 2.207031 21.785156 2.453125 21.496094 2.773438 21.472656 C 3.09375 21.449219 3.375 21.695312 3.394531 22.027344 C 3.449219 22.792969 3.570312 23.53125 3.746094 24.25 C 3.921875 25 4.164062 25.707031 4.464844 26.386719 Z M 6.917969 12.148438 C 6.675781 12.367188 6.308594 12.347656 6.09375 12.105469 C 5.878906 11.859375 5.898438 11.484375 6.140625 11.261719 C 6.6875 10.765625 7.324219 10.253906 7.976562 9.820312 C 8.574219 9.421875 9.175781 9.082031 9.761719 8.851562 C 10.0625 8.734375 10.398438 8.886719 10.515625 9.195312 C 10.628906 9.503906 10.480469 9.84375 10.175781 9.960938 C 9.679688 10.160156 9.140625 10.464844 8.609375 10.8125 C 8.007812 11.222656 7.414062 11.695312 6.917969 12.148438 Z M 22.023438 9.625 C 21.746094 9.457031 21.652344 9.09375 21.816406 8.808594 C 21.976562 8.527344 22.335938 8.429688 22.613281 8.59375 C 23.265625 8.988281 23.886719 9.433594 24.464844 9.925781 C 25.046875 10.421875 25.585938 10.960938 26.082031 11.546875 C 26.292969 11.792969 26.265625 12.171875 26.023438 12.386719 C 25.777344 12.597656 25.410156 12.574219 25.203125 12.324219 C 24.746094 11.789062 24.25 11.292969 23.722656 10.839844 C 23.191406 10.390625 22.625 9.988281 22.023438 9.625 Z M 28.492188 22.816406 C 28.53125 22.488281 28.824219 22.253906 29.140625 22.296875 C 29.460938 22.34375 29.6875 22.644531 29.644531 22.96875 C 29.554688 23.640625 29.421875 24.296875 29.25 24.925781 C 29.070312 25.578125 28.847656 26.203125 28.589844 26.808594 C 28.457031 27.109375 28.117188 27.246094 27.820312 27.109375 C 27.523438 26.972656 27.390625 26.625 27.523438 26.324219 C 27.765625 25.769531 27.96875 25.195312 28.128906 24.605469 C 28.289062 24.019531 28.414062 23.421875 28.492188 22.816406 Z M 12.921875 18.59375 C 12.742188 18.597656 12.609375 18.640625 12.515625 18.703125 C 12.460938 18.738281 12.425781 18.78125 12.398438 18.835938 C 12.371094 18.898438 12.359375 18.96875 12.363281 19.058594 C 12.367188 19.304688 12.5 19.632812 12.746094 20.011719 L 13.546875 21.320312 C 13.867188 21.84375 14.210938 22.375 14.628906 22.769531 C 15.03125 23.144531 15.515625 23.398438 16.167969 23.398438 C 16.871094 23.40625 17.382812 23.140625 17.796875 22.738281 C 18.226562 22.324219 18.570312 21.757812 18.90625 21.191406 L 19.8125 19.667969 C 19.980469 19.273438 20.042969 19.015625 20 18.859375 C 19.980469 18.761719 19.875 18.722656 19.707031 18.707031 C 19.675781 18.707031 19.640625 18.707031 19.601562 18.707031 C 19.558594 18.707031 19.519531 18.71875 19.472656 18.722656 C 19.449219 18.722656 19.429688 18.722656 19.40625 18.710938 C 19.328125 18.722656 19.238281 18.710938 19.160156 18.703125 L 19.46875 17.429688 C 17.175781 17.800781 15.453125 16.050781 13.027344 17.078125 L 13.199219 18.597656 C 13.097656 18.609375 13 18.605469 12.921875 18.59375 Z M 20.019531 18.296875 C 20.242188 18.367188 20.382812 18.511719 20.445312 18.746094 C 20.507812 19 20.4375 19.367188 20.222656 19.863281 C 20.21875 19.875 20.214844 19.886719 20.210938 19.890625 L 19.292969 21.433594 C 18.945312 22.027344 18.582031 22.625 18.105469 23.082031 C 17.609375 23.554688 17.003906 23.867188 16.167969 23.867188 C 15.390625 23.863281 14.804688 23.5625 14.328125 23.109375 C 13.859375 22.675781 13.507812 22.113281 13.171875 21.570312 L 12.363281 20.257812 C 12.074219 19.816406 11.921875 19.40625 11.914062 19.070312 C 11.902344 18.910156 11.933594 18.765625 11.992188 18.640625 C 12.046875 18.507812 12.140625 18.394531 12.265625 18.308594 C 12.328125 18.273438 12.390625 18.238281 12.460938 18.207031 C 12.410156 17.5 12.390625 16.738281 12.421875 15.996094 C 12.441406 15.820312 12.476562 15.636719 12.519531 15.460938 C 12.730469 14.710938 13.242188 14.371094 13.878906 13.953125 C 14.230469 13.730469 14.617188 13.550781 15.019531 13.441406 C 15.269531 13.363281 14.800781 12.53125 15.066406 12.503906 C 16.339844 12.367188 18.398438 13.5625 19.292969 14.539062 C 19.734375 15.039062 20.015625 15.425781 20.078125 16.292969 Z M 20.019531 18.296875 "/>
</g>
</svg>
