<?xml version="1.0" encoding="UTF-8"?>
<svg xmlns="http://www.w3.org/2000/svg" xmlns:xlink="http://www.w3.org/1999/xlink" width="15px" height="15px" viewBox="0 0 15 15" version="1.1">
<g id="surface1">
<path style=" stroke:none;fill-rule:nonzero;fill:rgb(40%,80%,100%);fill-opacity:1;" d="M 14.707031 6.726562 L 8.4375 0.460938 C 7.921875 -0.0546875 7.078125 -0.0546875 6.558594 0.460938 L 0.292969 6.726562 C -0.0976562 7.121094 -0.0976562 7.753906 0.292969 8.148438 C 0.6875 8.539062 1.320312 8.539062 1.710938 8.148438 L 2.5625 7.296875 L 2.5625 13.855469 C 2.5625 14.445312 3.039062 14.925781 3.632812 14.925781 L 5.914062 14.925781 L 5.914062 11.945312 C 5.914062 11.714844 6.101562 11.527344 6.335938 11.527344 L 8.664062 11.527344 C 8.898438 11.527344 9.085938 11.714844 9.085938 11.945312 L 9.085938 14.925781 L 11.367188 14.925781 C 11.960938 14.925781 12.4375 14.445312 12.4375 13.855469 L 12.4375 7.296875 L 13.285156 8.148438 C 13.484375 8.34375 13.738281 8.441406 13.996094 8.441406 C 14.253906 8.441406 14.511719 8.34375 14.707031 8.148438 C 15.097656 7.753906 15.097656 7.121094 14.707031 6.726562 Z M 14.707031 6.726562 "/>
</g>
</svg>
