<?xml version="1.0" encoding="UTF-8"?>
<svg xmlns="http://www.w3.org/2000/svg" xmlns:xlink="http://www.w3.org/1999/xlink" width="60pt" height="60pt" viewBox="0 0 60 60" version="1.1">
<defs>
<linearGradient id="linear0" gradientUnits="userSpaceOnUse" x1="0.15791" y1="0.14737" x2="0.91009" y2="0.85228" gradientTransform="matrix(56.19375,0,0,59.9625,0,0.0375)">
<stop offset="0" style="stop-color:rgb(0%,0%,0%);stop-opacity:1;"/>
<stop offset="1" style="stop-color:rgb(100%,100%,100%);stop-opacity:1;"/>
</linearGradient>
<linearGradient id="linear1" gradientUnits="userSpaceOnUse" x1="0.82136" y1="0.85237" x2="-0.03113" y2="0.1479" gradientTransform="matrix(49.582031,0,0,59.9625,10.417969,0.0375)">
<stop offset="0" style="stop-color:rgb(0%,0%,0%);stop-opacity:1;"/>
<stop offset="1" style="stop-color:rgb(100%,100%,100%);stop-opacity:1;"/>
</linearGradient>
</defs>
<g id="surface1">
<path style=" stroke:none;fill-rule:nonzero;fill:url(#linear0);" d="M 29.949219 44.664062 C 43.222656 62.757812 56.214844 39.613281 56.195312 25.691406 C 56.171875 9.234375 39.492188 0.0390625 29.9375 0.0390625 C 14.605469 0.0390625 0 12.710938 0 30.050781 C 0 49.324219 16.738281 60 29.9375 60 C 26.949219 59.570312 17 57.4375 16.867188 34.511719 C 16.773438 19.007812 21.921875 12.8125 29.917969 15.535156 C 30.097656 15.605469 38.734375 19.011719 38.734375 30.144531 C 38.734375 41.230469 29.949219 44.664062 29.949219 44.664062 Z M 29.949219 44.664062 "/>
<path style=" stroke:none;fill-rule:nonzero;fill:url(#linear1);" d="M 29.933594 15.523438 C 21.160156 12.5 10.417969 19.730469 10.417969 34.210938 C 10.417969 57.851562 27.9375 60 30.0625 60 C 45.394531 60 60 47.328125 60 29.984375 C 60 10.714844 43.261719 0.0390625 30.0625 0.0390625 C 33.71875 -0.46875 49.765625 3.992188 49.765625 25.925781 C 49.765625 40.226562 37.78125 48.015625 29.988281 44.6875 C 29.808594 44.621094 21.171875 41.214844 21.171875 30.082031 C 21.171875 18.996094 29.933594 15.523438 29.933594 15.523438 Z M 29.933594 15.523438 "/>
</g>
</svg>
