<?xml version="1.0" encoding="UTF-8"?>
<svg xmlns="http://www.w3.org/2000/svg" xmlns:xlink="http://www.w3.org/1999/xlink" width="10pt" height="10pt" viewBox="0 0 10 10" version="1.1">
<defs>
<linearGradient id="linear0" gradientUnits="userSpaceOnUse" x1="-974.482" y1="1306.773" x2="-622.378" y2="1658.877" gradientTransform="matrix(0.0200823,0,0,0.0200823,21.034299,-24.778532)">
<stop offset="0" style="stop-color:rgb(14.117647%,53.72549%,74.509804%);stop-opacity:1;"/>
<stop offset="1" style="stop-color:rgb(1.960784%,45.882353%,70.196078%);stop-opacity:1;"/>
</linearGradient>
</defs>
<g id="surface1">
<path style=" stroke:none;fill-rule:nonzero;fill:url(#linear0);" d="M 5 0 C 2.238281 0 0 2.238281 0 5 C 0 7.761719 2.238281 10 5 10 C 7.761719 10 10 7.761719 10 5 C 10 2.238281 7.761719 0 5 0 Z M 3.664062 7.417969 L 2.566406 7.417969 L 2.566406 3.871094 L 3.664062 3.871094 Z M 3.113281 3.40625 C 2.753906 3.40625 2.460938 3.113281 2.460938 2.75 C 2.460938 2.390625 2.753906 2.097656 3.113281 2.097656 C 3.46875 2.097656 3.761719 2.390625 3.761719 2.75 C 3.761719 3.113281 3.46875 3.40625 3.113281 3.40625 Z M 7.78125 7.417969 L 6.6875 7.417969 L 6.6875 5.554688 C 6.6875 5.046875 6.492188 4.761719 6.089844 4.761719 C 5.648438 4.761719 5.421875 5.058594 5.421875 5.554688 L 5.421875 7.417969 L 4.367188 7.417969 L 4.367188 3.871094 L 5.421875 3.871094 L 5.421875 4.347656 C 5.421875 4.347656 5.738281 3.761719 6.488281 3.761719 C 7.242188 3.761719 7.78125 4.222656 7.78125 5.171875 Z M 7.78125 7.417969 "/>
</g>
</svg>
