<?xml version="1.0" encoding="UTF-8"?>
<svg xmlns="http://www.w3.org/2000/svg" xmlns:xlink="http://www.w3.org/1999/xlink" width="60pt" height="60pt" viewBox="0 0 60 60" version="1.1">
<g id="surface1">
<path style=" stroke:none;fill-rule:nonzero;fill:rgb(34.901961%,58.823529%,21.176471%);fill-opacity:1;" d="M 27.613281 7.800781 L 28.914062 10.242188 C 29.207031 10.695312 29.523438 11.09375 29.894531 11.464844 C 30.988281 12.542969 32.007812 13.695312 32.945312 14.914062 C 35.148438 17.808594 36.636719 21.019531 37.695312 24.496094 C 38.335938 26.617188 38.679688 28.796875 38.703125 30.996094 C 38.8125 37.578125 36.554688 43.230469 32.007812 47.925781 C 31.265625 48.671875 30.464844 49.355469 29.617188 49.972656 C 29.164062 49.972656 28.949219 49.625 28.765625 49.308594 C 28.425781 48.71875 28.203125 48.066406 28.101562 47.394531 C 27.941406 46.601562 27.835938 45.804688 27.886719 44.980469 L 27.886719 44.609375 C 27.851562 44.53125 27.453125 7.988281 27.613281 7.800781 Z M 27.613281 7.800781 "/>
<path style=" stroke:none;fill-rule:nonzero;fill:rgb(42.352941%,67.45098%,28.235294%);fill-opacity:1;" d="M 27.613281 7.71875 C 27.558594 7.613281 27.507812 7.695312 27.453125 7.746094 C 27.476562 8.277344 27.292969 8.753906 27.003906 9.207031 C 26.679688 9.660156 26.257812 10.003906 25.835938 10.375 C 23.476562 12.417969 21.617188 14.886719 20.128906 17.648438 C 18.148438 21.363281 17.128906 25.34375 16.839844 29.535156 C 16.707031 31.046875 17.316406 36.382812 17.792969 37.921875 C 19.09375 42.007812 21.429688 45.433594 24.457031 48.40625 C 25.199219 49.121094 25.996094 49.785156 26.816406 50.421875 C 27.054688 50.421875 27.082031 50.210938 27.136719 50.050781 C 27.242188 49.714844 27.320312 49.367188 27.375 49.015625 L 27.90625 45.035156 Z M 27.613281 7.71875 "/>
<path style=" stroke:none;fill-rule:nonzero;fill:rgb(76.078431%,74.901961%,74.901961%);fill-opacity:1;" d="M 28.914062 51.589844 C 28.964844 50.980469 29.257812 50.472656 29.574219 49.96875 C 29.257812 49.835938 29.019531 49.574219 28.832031 49.28125 C 28.671875 49 28.539062 48.707031 28.4375 48.402344 C 28.066406 47.289062 27.988281 46.121094 27.882812 44.980469 L 27.882812 44.292969 C 27.746094 44.398438 27.722656 45.300781 27.722656 45.433594 C 27.640625 46.636719 27.484375 47.832031 27.242188 49.015625 C 27.164062 49.492188 27.109375 49.972656 26.816406 50.394531 C 26.816406 50.449219 26.816406 50.503906 26.84375 50.582031 C 27.320312 51.988281 27.453125 53.421875 27.53125 54.882812 L 27.53125 55.414062 C 27.53125 56.050781 27.507812 55.917969 28.035156 56.128906 C 28.246094 56.207031 28.484375 56.234375 28.699219 56.394531 C 28.859375 56.394531 28.882812 56.261719 28.882812 56.15625 L 28.804688 55.28125 L 28.804688 52.835938 C 28.777344 52.410156 28.859375 51.988281 28.914062 51.589844 Z M 28.914062 51.589844 "/>
</g>
</svg>
