<?xml version="1.0" encoding="UTF-8"?>
<svg xmlns="http://www.w3.org/2000/svg" xmlns:xlink="http://www.w3.org/1999/xlink" width="60pt" height="59pt" viewBox="0 0 60 59" version="1.1">
<g id="surface1">
<path style=" stroke:none;fill-rule:nonzero;fill:rgb(0%,32.941176%,41.960784%);fill-opacity:1;" d="M 55.230469 45.285156 C 51.96875 45.203125 49.4375 45.527344 47.320312 46.417969 C 46.707031 46.664062 45.730469 46.664062 45.648438 47.433594 C 45.972656 47.757812 46.015625 48.285156 46.300781 48.734375 C 46.789062 49.542969 47.644531 50.640625 48.417969 51.207031 C 49.277344 51.855469 50.132812 52.503906 51.03125 53.074219 C 52.621094 54.046875 54.414062 54.613281 55.964844 55.589844 C 56.863281 56.15625 57.757812 56.886719 58.65625 57.496094 C 59.105469 57.820312 59.386719 58.347656 59.960938 58.550781 L 59.960938 58.425781 C 59.675781 58.0625 59.59375 57.535156 59.308594 57.128906 C 58.902344 56.726562 58.492188 56.359375 58.085938 55.953125 C 56.902344 54.371094 55.433594 52.992188 53.84375 51.855469 C 52.539062 50.964844 49.683594 49.746094 49.152344 48.246094 C 49.152344 48.246094 49.113281 48.207031 49.074219 48.164062 C 49.96875 48.085938 51.03125 47.757812 51.886719 47.515625 C 53.273438 47.148438 54.535156 47.230469 55.964844 46.867188 C 56.617188 46.703125 57.269531 46.5 57.921875 46.296875 L 57.921875 45.933594 C 57.1875 45.203125 56.65625 44.230469 55.882812 43.539062 C 53.804688 41.753906 51.519531 40.011719 49.152344 38.550781 C 47.890625 37.738281 46.257812 37.210938 44.914062 36.519531 C 44.421875 36.277344 43.609375 36.15625 43.324219 35.75 C 42.589844 34.859375 42.179688 33.683594 41.652344 32.628906 C 40.46875 30.398438 39.328125 27.921875 38.304688 25.570312 C 37.574219 23.984375 37.125 22.40625 36.226562 20.945312 C 32.027344 14.046875 27.460938 9.871094 20.445312 5.769531 C 18.9375 4.921875 17.144531 4.554688 15.226562 4.109375 C 14.207031 4.066406 13.1875 3.988281 12.167969 3.945312 C 11.515625 3.664062 10.867188 2.890625 10.292969 2.527344 C 7.972656 1.066406 1.976562 -2.097656 0.261719 2.078125 C -0.839844 4.71875 1.894531 7.316406 2.832031 8.652344 C 3.523438 9.585938 4.421875 10.640625 4.914062 11.695312 C 5.195312 12.386719 5.277344 13.117188 5.5625 13.84375 C 6.214844 15.628906 6.828125 17.617188 7.683594 19.28125 C 8.132812 20.132812 8.621094 21.027344 9.191406 21.796875 C 9.519531 22.242188 10.089844 22.445312 10.210938 23.175781 C 9.640625 23.984375 9.601562 25.203125 9.273438 26.21875 C 7.808594 30.800781 8.378906 36.480469 10.457031 39.847656 C 11.109375 40.863281 12.660156 43.09375 14.738281 42.242188 C 16.574219 41.511719 16.167969 39.199219 16.695312 37.171875 C 16.820312 36.683594 16.738281 36.359375 16.980469 36.035156 L 16.980469 36.117188 C 17.550781 37.253906 18.121094 38.347656 18.652344 39.484375 C 19.917969 41.46875 22.121094 43.539062 23.953125 44.921875 C 24.933594 45.648438 25.707031 46.90625 26.933594 47.355469 L 26.933594 47.230469 L 26.851562 47.230469 C 26.605469 46.867188 26.238281 46.703125 25.914062 46.417969 C 25.175781 45.691406 24.359375 44.796875 23.792969 43.984375 C 22.078125 41.714844 20.570312 39.199219 19.222656 36.601562 C 18.570312 35.34375 18 33.964844 17.46875 32.707031 C 17.226562 32.222656 17.226562 31.492188 16.820312 31.25 C 16.207031 32.140625 15.308594 32.910156 14.863281 34.003906 C 14.085938 35.75 14.003906 37.902344 13.71875 40.132812 C 13.554688 40.171875 13.636719 40.132812 13.554688 40.214844 C 12.25 39.890625 11.804688 38.550781 11.3125 37.414062 C 10.089844 34.535156 9.886719 29.910156 10.945312 26.582031 C 11.230469 25.730469 12.453125 23.054688 11.964844 22.242188 C 11.722656 21.46875 10.90625 21.027344 10.457031 20.417969 C 9.929688 19.644531 9.355469 18.675781 8.988281 17.820312 C 8.011719 15.550781 7.519531 13.035156 6.460938 10.761719 C 5.972656 9.707031 5.117188 8.613281 4.421875 7.636719 C 3.648438 6.542969 2.792969 5.769531 2.179688 4.472656 C 1.976562 4.027344 1.691406 3.296875 2.015625 2.8125 C 2.097656 2.488281 2.261719 2.367188 2.585938 2.285156 C 3.117188 1.835938 4.625 2.40625 5.15625 2.648438 C 6.664062 3.253906 7.929688 3.824219 9.191406 4.675781 C 9.765625 5.082031 10.375 5.851562 11.109375 6.058594 L 11.964844 6.058594 C 13.269531 6.339844 14.738281 6.136719 15.960938 6.5 C 18.125 7.191406 20.082031 8.207031 21.835938 9.300781 C 27.175781 12.667969 31.578125 17.457031 34.554688 23.175781 C 35.046875 24.109375 35.25 24.960938 35.699219 25.933594 C 36.554688 27.921875 37.613281 29.949219 38.46875 31.898438 C 39.328125 33.804688 40.140625 35.75 41.363281 37.335938 C 41.976562 38.183594 44.421875 38.632812 45.523438 39.078125 C 46.339844 39.441406 47.605469 39.765625 48.339844 40.210938 C 49.726562 41.066406 51.113281 42.039062 52.414062 42.972656 C 53.070312 43.457031 55.109375 44.472656 55.230469 45.285156 Z M 55.230469 45.285156 "/>
<path style=" stroke:none;fill-rule:nonzero;fill:rgb(0%,32.941176%,41.960784%);fill-opacity:1;" d="M 13.636719 10.03125 C 12.945312 10.03125 12.453125 10.113281 11.964844 10.234375 L 11.964844 10.316406 L 12.046875 10.316406 C 12.375 10.964844 12.945312 11.410156 13.351562 11.976562 C 13.679688 12.625 13.964844 13.277344 14.289062 13.925781 C 14.328125 13.882812 14.371094 13.84375 14.371094 13.84375 C 14.945312 13.4375 15.226562 12.789062 15.226562 11.816406 C 14.984375 11.53125 14.941406 11.25 14.738281 10.964844 C 14.492188 10.558594 13.964844 10.355469 13.636719 10.03125 Z M 13.636719 10.03125 "/>
</g>
</svg>
