<?xml version="1.0" encoding="UTF-8"?>
<svg xmlns="http://www.w3.org/2000/svg" xmlns:xlink="http://www.w3.org/1999/xlink" width="60pt" height="66pt" viewBox="0 0 60 66" version="1.1">
<g id="surface1">
<path style=" stroke:none;fill-rule:nonzero;fill:rgb(54.901961%,78.431373%,29.411765%);fill-opacity:1;" d="M 27.300781 0.832031 C 28.929688 -0.09375 31.058594 -0.0976562 32.6875 0.832031 C 40.886719 5.445312 49.089844 10.050781 57.289062 14.664062 C 58.832031 15.53125 59.863281 17.238281 59.84375 19.003906 L 59.84375 46.746094 C 59.855469 48.589844 58.722656 50.335938 57.097656 51.183594 C 48.921875 55.769531 40.753906 60.359375 32.582031 64.945312 C 30.917969 65.894531 28.75 65.820312 27.136719 64.792969 C 24.6875 63.382812 22.234375 61.976562 19.78125 60.5625 C 19.28125 60.265625 18.71875 60.027344 18.363281 59.542969 C 18.675781 59.125 19.234375 59.074219 19.6875 58.890625 C 20.710938 58.566406 21.648438 58.046875 22.589844 57.542969 C 22.828125 57.382812 23.117188 57.441406 23.347656 57.585938 C 25.441406 58.78125 27.519531 60.015625 29.621094 61.199219 C 30.066406 61.457031 30.523438 61.113281 30.90625 60.902344 C 38.925781 56.390625 46.957031 51.894531 54.976562 47.382812 C 55.273438 47.242188 55.4375 46.925781 55.414062 46.605469 C 55.417969 37.453125 55.414062 28.296875 55.414062 19.148438 C 55.449219 18.78125 55.234375 18.441406 54.902344 18.292969 C 46.757812 13.726562 38.617188 9.152344 30.472656 4.589844 C 30.183594 4.390625 29.804688 4.390625 29.515625 4.585938 C 21.371094 9.152344 13.230469 13.730469 5.089844 18.292969 C 4.753906 18.445312 4.53125 18.777344 4.570312 19.148438 C 4.574219 28.296875 4.570312 37.453125 4.570312 46.605469 C 4.542969 46.929688 4.71875 47.234375 5.011719 47.375 C 7.1875 48.601562 9.363281 49.820312 11.539062 51.042969 C 12.761719 51.699219 14.265625 52.089844 15.617188 51.585938 C 16.808594 51.160156 17.640625 49.953125 17.621094 48.691406 C 17.632812 39.59375 17.613281 30.492188 17.628906 21.394531 C 17.597656 20.992188 17.984375 20.660156 18.378906 20.699219 C 19.421875 20.691406 20.46875 20.683594 21.511719 20.699219 C 21.945312 20.691406 22.246094 21.125 22.191406 21.53125 C 22.191406 30.6875 22.203125 39.84375 22.1875 49 C 22.191406 51.441406 21.183594 54.097656 18.914062 55.289062 C 16.121094 56.730469 12.664062 56.425781 9.90625 55.042969 C 7.515625 53.855469 5.234375 52.453125 2.890625 51.183594 C 1.257812 50.34375 0.128906 48.585938 0.140625 46.746094 L 0.140625 19.003906 C 0.125 17.199219 1.199219 15.460938 2.785156 14.609375 C 10.960938 10.019531 19.128906 5.425781 27.300781 0.832031 Z M 27.300781 0.832031 "/>
<path style=" stroke:none;fill-rule:nonzero;fill:rgb(54.901961%,78.431373%,29.411765%);fill-opacity:1;" d="M 34.429688 20.054688 C 37.992188 19.824219 41.808594 19.917969 45.015625 21.664062 C 47.5 23.003906 48.875 25.8125 48.917969 28.558594 C 48.851562 28.929688 48.460938 29.132812 48.105469 29.109375 C 47.070312 29.105469 46.039062 29.121094 45.003906 29.101562 C 44.5625 29.117188 44.308594 28.714844 44.253906 28.328125 C 43.957031 27.015625 43.238281 25.714844 41.996094 25.082031 C 40.085938 24.128906 37.878906 24.179688 35.796875 24.199219 C 34.28125 24.28125 32.644531 24.410156 31.359375 25.296875 C 30.371094 25.96875 30.074219 27.328125 30.425781 28.425781 C 30.757812 29.210938 31.667969 29.464844 32.414062 29.699219 C 36.710938 30.8125 41.261719 30.703125 45.472656 32.175781 C 47.21875 32.773438 48.925781 33.941406 49.519531 35.757812 C 50.304688 38.191406 49.960938 41.105469 48.21875 43.0625 C 46.808594 44.671875 44.75 45.546875 42.699219 46.023438 C 39.96875 46.628906 37.136719 46.640625 34.363281 46.375 C 31.761719 46.078125 29.046875 45.398438 27.035156 43.628906 C 25.316406 42.144531 24.472656 39.828125 24.558594 37.589844 C 24.578125 37.214844 24.957031 36.949219 25.320312 36.980469 C 26.359375 36.972656 27.402344 36.96875 28.445312 36.984375 C 28.859375 36.953125 29.167969 37.308594 29.1875 37.699219 C 29.382812 38.953125 29.851562 40.265625 30.949219 41.007812 C 33.066406 42.367188 35.722656 42.273438 38.144531 42.3125 C 40.152344 42.222656 42.40625 42.195312 44.046875 40.875 C 44.910156 40.121094 45.167969 38.863281 44.933594 37.78125 C 44.679688 36.863281 43.71875 36.4375 42.890625 36.160156 C 38.652344 34.824219 34.046875 35.308594 29.851562 33.796875 C 28.144531 33.199219 26.496094 32.066406 25.839844 30.320312 C 24.929688 27.855469 25.34375 24.804688 27.269531 22.914062 C 29.148438 21.035156 31.855469 20.3125 34.429688 20.054688 Z M 34.429688 20.054688 "/>
</g>
</svg>
