<?xml version="1.0" encoding="UTF-8"?>
<svg xmlns="http://www.w3.org/2000/svg" xmlns:xlink="http://www.w3.org/1999/xlink" width="60pt" height="61pt" viewBox="0 0 60 61" version="1.1">
<g id="surface1">
<path style=" stroke:none;fill-rule:nonzero;fill:rgb(0%,0%,0%);fill-opacity:1;" d="M 59.769531 36.453125 C 59.40625 35.382812 58.464844 34.632812 57.246094 34.457031 C 56.671875 34.371094 56.011719 34.40625 55.234375 34.566406 C 53.878906 34.839844 52.871094 34.945312 52.132812 34.964844 C 54.910156 30.359375 57.167969 25.101562 58.464844 20.15625 C 60.566406 12.15625 59.441406 8.511719 58.128906 6.863281 C 54.660156 2.5 49.597656 0.15625 43.488281 0.0859375 C 40.230469 0.046875 37.367188 0.679688 35.878906 1.132812 C 34.488281 0.894531 32.996094 0.757812 31.425781 0.734375 C 28.488281 0.6875 25.890625 1.320312 23.675781 2.613281 C 22.445312 2.203125 20.476562 1.628906 18.199219 1.261719 C 12.84375 0.398438 8.527344 1.070312 5.375 3.265625 C 1.550781 5.921875 -0.21875 10.535156 0.109375 16.980469 C 0.210938 19.027344 1.375 25.25 3.207031 31.15625 C 4.261719 34.550781 5.382812 37.367188 6.542969 39.535156 C 8.191406 42.605469 9.953125 44.414062 11.933594 45.0625 C 13.039062 45.421875 15.054688 45.679688 17.175781 43.945312 C 17.441406 44.261719 17.800781 44.582031 18.277344 44.875 C 18.882812 45.25 19.621094 45.558594 20.359375 45.738281 C 23.015625 46.394531 25.503906 46.230469 27.628906 45.3125 C 27.640625 45.683594 27.652344 46.039062 27.660156 46.34375 C 27.675781 46.84375 27.6875 47.332031 27.707031 47.789062 C 27.832031 50.871094 28.046875 53.269531 28.679688 54.945312 C 28.714844 55.039062 28.761719 55.179688 28.808594 55.328125 C 29.125 56.277344 29.652344 57.867188 30.992188 59.113281 C 32.382812 60.402344 34.058594 60.796875 35.597656 60.796875 C 36.371094 60.796875 37.105469 60.699219 37.753906 60.5625 C 40.054688 60.074219 42.667969 59.335938 44.558594 56.6875 C 46.347656 54.183594 47.214844 50.414062 47.371094 44.46875 C 47.394531 44.300781 47.410156 44.140625 47.429688 43.988281 L 47.46875 43.671875 L 47.890625 43.710938 L 47.996094 43.71875 C 50.339844 43.824219 53.207031 43.332031 54.96875 42.53125 C 56.359375 41.894531 60.816406 39.578125 59.769531 36.453125 "/>
<path style=" stroke:none;fill-rule:nonzero;fill:rgb(20%,40.392157%,56.862745%);fill-opacity:1;" d="M 55.761719 37.0625 C 48.789062 38.476562 48.308594 36.152344 48.308594 36.152344 C 55.667969 25.410156 58.746094 11.773438 56.089844 8.433594 C 48.847656 -0.667969 36.308594 3.636719 36.101562 3.746094 L 36.03125 3.757812 C 34.65625 3.476562 33.113281 3.3125 31.382812 3.285156 C 28.226562 3.234375 25.835938 4.097656 24.019531 5.453125 C 24.019531 5.453125 1.65625 -3.617188 2.695312 16.851562 C 2.914062 21.207031 9.039062 49.796875 16.339844 41.160156 C 19.007812 38.003906 21.589844 35.332031 21.589844 35.332031 C 22.867188 36.167969 24.402344 36.597656 26.007812 36.445312 L 26.132812 36.339844 C 26.09375 36.734375 26.113281 37.117188 26.183594 37.570312 C 24.300781 39.636719 24.855469 40 21.097656 40.761719 C 17.289062 41.53125 19.527344 42.90625 20.984375 43.265625 C 22.753906 43.699219 26.847656 44.316406 29.613281 40.507812 L 29.503906 40.941406 C 30.238281 41.523438 30.757812 44.722656 30.671875 47.621094 C 30.582031 50.515625 30.523438 52.507812 31.105469 54.0625 C 31.6875 55.613281 32.265625 59.109375 37.210938 58.070312 C 41.339844 57.199219 43.480469 54.941406 43.777344 51.175781 C 43.988281 48.5 44.46875 48.894531 44.5 46.503906 L 44.878906 45.371094 C 45.324219 41.742188 44.949219 40.574219 47.496094 41.117188 L 48.113281 41.171875 C 49.988281 41.257812 52.4375 40.875 53.878906 40.21875 C 56.976562 38.800781 58.8125 36.441406 55.757812 37.0625 L 55.761719 37.0625 "/>
<path style=" stroke:none;fill-rule:nonzero;fill:rgb(100%,100%,100%);fill-opacity:1;" d="M 25.332031 18.800781 C 24.703125 18.714844 24.132812 18.792969 23.84375 19.007812 C 23.683594 19.128906 23.632812 19.269531 23.621094 19.363281 C 23.582031 19.617188 23.765625 19.902344 23.878906 20.046875 C 24.191406 20.457031 24.652344 20.738281 25.109375 20.800781 C 25.175781 20.808594 25.242188 20.816406 25.308594 20.816406 C 26.066406 20.816406 26.757812 20.234375 26.820312 19.800781 C 26.898438 19.261719 26.101562 18.90625 25.332031 18.800781 M 46.140625 18.816406 C 46.078125 18.394531 45.316406 18.273438 44.589844 18.371094 C 43.867188 18.472656 43.164062 18.792969 43.222656 19.21875 C 43.269531 19.546875 43.875 20.105469 44.589844 20.105469 C 44.652344 20.105469 44.710938 20.105469 44.773438 20.09375 C 45.25 20.03125 45.601562 19.730469 45.765625 19.558594 C 46.019531 19.296875 46.167969 19.003906 46.140625 18.816406 "/>
<path style=" stroke:none;fill-rule:nonzero;fill:rgb(100%,100%,100%);fill-opacity:1;" d="M 58.078125 36.902344 C 57.8125 36.109375 56.957031 35.855469 55.535156 36.144531 C 51.316406 37 49.804688 36.40625 49.308594 36.046875 C 52.589844 31.132812 55.285156 25.1875 56.742188 19.644531 C 57.429688 17.015625 57.8125 14.578125 57.84375 12.589844 C 57.878906 10.410156 57.5 8.804688 56.722656 7.824219 C 53.582031 3.875 48.96875 1.757812 43.390625 1.699219 C 39.554688 1.65625 36.3125 2.621094 35.683594 2.894531 C 34.363281 2.570312 32.917969 2.375 31.347656 2.347656 C 28.46875 2.300781 25.976562 2.980469 23.917969 4.363281 C 23.023438 4.035156 20.707031 3.253906 17.878906 2.804688 C 12.988281 2.03125 9.097656 2.617188 6.324219 4.550781 C 3.015625 6.859375 1.484375 10.980469 1.785156 16.808594 C 1.882812 18.769531 3.019531 24.800781 4.808594 30.574219 C 7.167969 38.175781 9.730469 42.480469 12.429688 43.363281 C 12.742188 43.46875 13.109375 43.539062 13.507812 43.539062 C 14.492188 43.539062 15.699219 43.101562 16.953125 41.617188 C 18.484375 39.8125 20.070312 38.046875 21.703125 36.332031 C 22.765625 36.890625 23.929688 37.207031 25.121094 37.234375 C 25.121094 37.265625 25.125 37.296875 25.128906 37.328125 C 24.921875 37.570312 24.722656 37.8125 24.523438 38.058594 C 23.699219 39.09375 23.527344 39.308594 20.871094 39.84375 C 20.117188 39.996094 18.109375 40.402344 18.078125 41.789062 C 18.046875 43.300781 20.453125 43.9375 20.726562 44.003906 C 21.679688 44.238281 22.601562 44.355469 23.476562 44.355469 C 25.613281 44.355469 27.488281 43.667969 28.988281 42.332031 C 28.941406 47.722656 29.171875 53.039062 29.828125 54.65625 C 30.367188 55.980469 31.683594 59.222656 35.84375 59.222656 C 36.453125 59.222656 37.128906 59.148438 37.867188 58.996094 C 42.207031 58.078125 44.089844 56.191406 44.820312 52.03125 C 45.210938 49.804688 45.882812 44.496094 46.195312 41.644531 C 46.859375 41.851562 47.714844 41.945312 48.640625 41.945312 C 50.570312 41.945312 52.796875 41.539062 54.191406 40.902344 C 55.761719 40.1875 58.589844 38.425781 58.078125 36.902344 Z M 47.742188 17.648438 C 47.726562 18.492188 47.609375 19.253906 47.484375 20.050781 C 47.351562 20.910156 47.210938 21.792969 47.175781 22.871094 C 47.140625 23.917969 47.277344 25.003906 47.40625 26.058594 C 47.664062 28.183594 47.929688 30.375 46.898438 32.53125 C 46.726562 32.234375 46.574219 31.925781 46.441406 31.609375 C 46.3125 31.300781 46.035156 30.8125 45.648438 30.132812 C 44.148438 27.484375 40.636719 21.289062 42.4375 18.761719 C 42.96875 18.007812 44.328125 17.234375 47.742188 17.648438 Z M 43.605469 3.402344 C 48.605469 3.511719 52.5625 5.351562 55.363281 8.875 C 57.507812 11.574219 55.144531 23.859375 48.296875 34.460938 C 48.230469 34.375 48.160156 34.289062 48.089844 34.203125 L 48.003906 34.097656 C 49.773438 31.222656 49.425781 28.375 49.117188 25.855469 C 48.992188 24.820312 48.871094 23.84375 48.902344 22.925781 C 48.933594 21.953125 49.066406 21.117188 49.191406 20.3125 C 49.347656 19.316406 49.503906 18.285156 49.460938 17.074219 C 49.496094 16.949219 49.507812 16.796875 49.492188 16.617188 C 49.378906 15.453125 48.027344 11.972656 45.277344 8.824219 C 43.773438 7.097656 41.578125 5.167969 38.582031 3.867188 C 39.871094 3.605469 41.632812 3.359375 43.605469 3.402344 Z M 15.625 40.535156 C 14.242188 42.167969 13.289062 41.855469 12.976562 41.753906 C 10.929688 41.082031 8.554688 36.824219 6.460938 30.078125 C 4.648438 24.242188 3.589844 18.371094 3.507812 16.722656 C 3.242188 11.515625 4.527344 7.890625 7.320312 5.9375 C 11.867188 2.765625 19.34375 4.667969 22.351562 5.628906 C 22.308594 5.671875 22.261719 5.710938 22.21875 5.75 C 17.289062 10.652344 17.40625 19.019531 17.417969 19.53125 C 17.417969 19.730469 17.433594 20.007812 17.457031 20.390625 C 17.542969 21.800781 17.699219 24.421875 17.277344 27.386719 C 16.886719 30.144531 17.75 32.84375 19.648438 34.792969 C 19.84375 34.992188 20.046875 35.179688 20.261719 35.359375 C 19.414062 36.253906 17.582031 38.21875 15.625 40.535156 Z M 20.894531 33.617188 C 19.367188 32.046875 18.671875 29.863281 18.988281 27.625 C 19.433594 24.488281 19.269531 21.757812 19.179688 20.292969 C 19.167969 20.085938 19.15625 19.90625 19.152344 19.765625 C 19.871094 19.140625 23.210938 17.378906 25.589844 17.914062 C 26.675781 18.160156 27.335938 18.886719 27.613281 20.136719 C 29.035156 26.621094 27.800781 29.320312 26.808594 31.492188 C 26.605469 31.9375 26.410156 32.359375 26.246094 32.796875 L 26.117188 33.136719 C 25.796875 33.988281 25.492188 34.785156 25.304688 35.539062 C 23.679688 35.535156 22.097656 34.851562 20.894531 33.617188 Z M 21.144531 42.355469 C 20.667969 42.238281 20.242188 42.035156 19.992188 41.867188 C 20.199219 41.769531 20.574219 41.640625 21.21875 41.507812 C 24.347656 40.875 24.828125 40.429688 25.882812 39.109375 C 26.125 38.8125 26.398438 38.464844 26.777344 38.050781 C 27.34375 37.425781 27.601562 37.535156 28.070312 37.726562 C 28.449219 37.878906 28.820312 38.347656 28.972656 38.863281 C 29.042969 39.105469 29.121094 39.566406 28.859375 39.929688 C 26.65625 42.960938 23.449219 42.921875 21.144531 42.355469 Z M 37.503906 57.332031 C 33.679688 58.140625 32.324219 56.21875 31.433594 54.023438 C 30.859375 52.609375 30.574219 46.21875 30.777344 39.164062 C 30.777344 39.070312 30.765625 38.980469 30.738281 38.894531 C 30.714844 38.726562 30.679688 38.558594 30.628906 38.394531 C 30.332031 37.371094 29.605469 36.511719 28.730469 36.15625 C 28.386719 36.011719 27.746094 35.753906 26.984375 35.945312 C 27.148438 35.285156 27.429688 34.539062 27.734375 33.730469 L 27.863281 33.390625 C 28.011719 33.007812 28.191406 32.609375 28.386719 32.1875 C 29.421875 29.917969 30.847656 26.804688 29.300781 19.78125 C 28.722656 17.148438 26.792969 15.863281 23.863281 16.164062 C 22.109375 16.339844 20.5 17.039062 19.703125 17.4375 C 19.527344 17.523438 19.371094 17.605469 19.222656 17.6875 C 19.445312 15.035156 20.292969 10.078125 23.453125 6.941406 C 25.441406 4.96875 28.089844 3.996094 31.320312 4.046875 C 37.679688 4.148438 41.757812 7.359375 44.058594 10.035156 C 46.046875 12.34375 47.117188 14.667969 47.546875 15.921875 C 44.324219 15.597656 42.132812 16.222656 41.019531 17.785156 C 38.601562 21.1875 42.34375 27.789062 44.140625 30.960938 C 44.46875 31.539062 44.753906 32.042969 44.84375 32.257812 C 45.429688 33.652344 46.1875 34.585938 46.742188 35.265625 C 46.910156 35.472656 47.078125 35.675781 47.199219 35.851562 C 46.222656 36.128906 44.46875 36.769531 44.628906 39.96875 C 44.5 41.570312 43.585938 49.085938 43.117188 51.742188 C 42.503906 55.246094 41.191406 56.554688 37.503906 57.332031 Z M 53.464844 39.363281 C 52.46875 39.816406 50.796875 40.160156 49.210938 40.234375 C 47.457031 40.3125 46.5625 40.039062 46.355469 39.871094 C 46.257812 37.878906 47.007812 37.671875 47.808594 37.449219 C 47.933594 37.417969 48.054688 37.382812 48.171875 37.339844 C 48.246094 37.398438 48.328125 37.457031 48.414062 37.515625 C 49.824219 38.429688 52.339844 38.527344 55.882812 37.808594 L 55.925781 37.800781 C 55.445312 38.242188 54.628906 38.832031 53.464844 39.363281 Z M 53.464844 39.363281 "/>
</g>
</svg>
