<?xml version="1.0" encoding="UTF-8"?>
<svg xmlns="http://www.w3.org/2000/svg" xmlns:xlink="http://www.w3.org/1999/xlink" width="60pt" height="60pt" viewBox="0 0 60 60" version="1.1">
<defs>
<linearGradient id="linear0" gradientUnits="userSpaceOnUse" x1="45.71" y1="-698.26" x2="121.89" y2="-698.26" gradientTransform="matrix(0.46875,0,0,-0.46875,0,-304.153125)">
<stop offset="0" style="stop-color:rgb(12.941176%,84.313725%,53.72549%);stop-opacity:1;"/>
<stop offset="1" style="stop-color:rgb(2.745098%,76.470588%,94.901961%);stop-opacity:1;"/>
</linearGradient>
<linearGradient id="linear1" gradientUnits="userSpaceOnUse" x1="-44.89" y1="-756.89" x2="111.96" y2="-641.1" gradientTransform="matrix(0.46875,0,0,-0.46875,0,-304.153125)">
<stop offset="0.01" style="stop-color:rgb(98.823529%,97.254902%,29.019608%);stop-opacity:1;"/>
<stop offset="0.11" style="stop-color:rgb(65.490196%,92.156863%,38.431373%);stop-opacity:1;"/>
<stop offset="0.21" style="stop-color:rgb(37.254902%,87.843137%,46.666667%);stop-opacity:1;"/>
<stop offset="0.27" style="stop-color:rgb(19.607843%,85.490196%,51.764706%);stop-opacity:1;"/>
<stop offset="0.31" style="stop-color:rgb(12.941176%,84.313725%,53.72549%);stop-opacity:1;"/>
<stop offset="0.58" style="stop-color:rgb(12.941176%,84.313725%,53.72549%);stop-opacity:1;"/>
<stop offset="0.6" style="stop-color:rgb(12.941176%,84.313725%,53.72549%);stop-opacity:1;"/>
<stop offset="0.69" style="stop-color:rgb(12.54902%,83.921569%,54.901961%);stop-opacity:1;"/>
<stop offset="0.76" style="stop-color:rgb(11.764706%,83.137255%,59.215686%);stop-opacity:1;"/>
<stop offset="0.83" style="stop-color:rgb(9.803922%,81.960784%,66.27451%);stop-opacity:1;"/>
<stop offset="0.9" style="stop-color:rgb(7.45098%,80%,76.078431%);stop-opacity:1;"/>
<stop offset="0.97" style="stop-color:rgb(4.313725%,77.647059%,88.235294%);stop-opacity:1;"/>
<stop offset="1" style="stop-color:rgb(2.745098%,76.470588%,94.901961%);stop-opacity:1;"/>
</linearGradient>
<linearGradient id="linear2" gradientUnits="userSpaceOnUse" x1="17.07" y1="-790.84" x2="43.23" y2="-708.75" gradientTransform="matrix(0.46875,0,0,-0.46875,0,-304.153125)">
<stop offset="0" style="stop-color:rgb(12.941176%,84.313725%,53.72549%);stop-opacity:1;"/>
<stop offset="0.16" style="stop-color:rgb(14.117647%,84.313725%,53.333333%);stop-opacity:1;"/>
<stop offset="0.3" style="stop-color:rgb(18.431373%,84.705882%,52.54902%);stop-opacity:1;"/>
<stop offset="0.44" style="stop-color:rgb(25.490196%,85.490196%,50.980392%);stop-opacity:1;"/>
<stop offset="0.56" style="stop-color:rgb(35.294118%,86.27451%,49.019608%);stop-opacity:1;"/>
<stop offset="0.69" style="stop-color:rgb(47.843137%,87.843137%,46.666667%);stop-opacity:1;"/>
<stop offset="0.81" style="stop-color:rgb(63.137255%,89.019608%,43.137255%);stop-opacity:1;"/>
<stop offset="0.93" style="stop-color:rgb(81.176471%,90.980392%,39.607843%);stop-opacity:1;"/>
<stop offset="1" style="stop-color:rgb(94.509804%,92.156863%,36.862745%);stop-opacity:1;"/>
</linearGradient>
<linearGradient id="linear3" gradientUnits="userSpaceOnUse" x1="51.71" y1="-719.47" x2="108.64" y2="-642.93" gradientTransform="matrix(0.46875,0,0,-0.46875,0,-304.153125)">
<stop offset="0" style="stop-color:rgb(12.941176%,84.313725%,53.72549%);stop-opacity:1;"/>
<stop offset="0.06" style="stop-color:rgb(14.117647%,84.313725%,53.333333%);stop-opacity:1;"/>
<stop offset="0.11" style="stop-color:rgb(18.431373%,84.705882%,52.54902%);stop-opacity:1;"/>
<stop offset="0.16" style="stop-color:rgb(25.490196%,85.490196%,50.980392%);stop-opacity:1;"/>
<stop offset="0.21" style="stop-color:rgb(35.294118%,86.666667%,49.019608%);stop-opacity:1;"/>
<stop offset="0.25" style="stop-color:rgb(47.45098%,87.843137%,46.666667%);stop-opacity:1;"/>
<stop offset="0.26" style="stop-color:rgb(48.627451%,87.843137%,46.27451%);stop-opacity:1;"/>
<stop offset="0.5" style="stop-color:rgb(54.901961%,88.235294%,45.098039%);stop-opacity:1;"/>
<stop offset="0.92" style="stop-color:rgb(69.803922%,89.803922%,41.960784%);stop-opacity:1;"/>
</linearGradient>
<linearGradient id="linear4" gradientUnits="userSpaceOnUse" x1="138.77" y1="-729.22" x2="24.06" y2="-728.15" gradientTransform="matrix(0.46875,0,0,-0.46875,0,-304.153125)">
<stop offset="0.39" style="stop-color:rgb(98.823529%,97.254902%,29.019608%);stop-opacity:1;"/>
<stop offset="0.54" style="stop-color:rgb(92.54902%,95.686275%,31.764706%);stop-opacity:1;"/>
<stop offset="0.83" style="stop-color:rgb(76.078431%,91.372549%,39.215686%);stop-opacity:1;"/>
<stop offset="0.92" style="stop-color:rgb(69.803922%,89.803922%,41.960784%);stop-opacity:1;"/>
</linearGradient>
</defs>
<g id="surface1">
<path style=" stroke:none;fill-rule:nonzero;fill:url(#linear0);" d="M 42.09375 9.46875 L 59.625 24 L 53.25 36.84375 L 42.75 33.9375 L 33.5625 33.9375 Z M 42.09375 9.46875 "/>
<path style=" stroke:none;fill-rule:nonzero;fill:url(#linear1);" d="M 24.375 18.9375 L 21 36.84375 L 20.71875 43.03125 L 12.09375 46.6875 L 0 48 L 3.65625 9.1875 L 25.6875 0 L 39.1875 8.90625 Z M 24.375 18.9375 "/>
<path style=" stroke:none;fill-rule:nonzero;fill:url(#linear2);" d="M 24.375 18.9375 L 26.0625 53.53125 L 20.53125 60 L 0 48 L 16.875 22.78125 Z M 24.375 18.9375 "/>
<path style=" stroke:none;fill-rule:nonzero;fill:url(#linear3);" d="M 47.0625 16.40625 L 26.25 16.40625 L 44.625 0 Z M 47.0625 16.40625 "/>
<path style=" stroke:none;fill-rule:nonzero;fill:url(#linear4);" d="M 60 53.625 L 41.71875 59.90625 L 17.34375 53.0625 L 24.375 18.9375 L 27.1875 16.40625 L 42.09375 15 L 40.6875 29.90625 L 52.5 25.3125 Z M 60 53.625 "/>
<path style=" stroke:none;fill-rule:nonzero;fill:rgb(0%,0%,0%);fill-opacity:1;" d="M 11.25 11.25 L 48.75 11.25 L 48.75 48.75 L 11.25 48.75 Z M 11.25 11.25 "/>
<path style=" stroke:none;fill-rule:nonzero;fill:rgb(100%,100%,100%);fill-opacity:1;" d="M 15 15.9375 L 21.375 15.9375 C 25.125 15.9375 27.28125 18.09375 27.28125 21.28125 C 27.28125 24.84375 24.46875 26.71875 21 26.71875 L 18.375 26.71875 L 18.375 31.40625 L 15 31.40625 Z M 21.09375 23.8125 C 22.78125 23.8125 23.8125 22.6875 23.8125 21.375 C 23.8125 19.875 22.78125 19.03125 21 19.03125 L 18.375 19.03125 L 18.375 23.8125 Z M 29.8125 15.9375 L 41.53125 15.9375 L 41.53125 18.9375 L 33.1875 18.9375 L 33.1875 22.125 L 40.5 22.125 L 40.5 25.125 L 33.1875 25.125 L 33.1875 28.40625 L 41.625 28.40625 L 41.625 31.40625 L 29.8125 31.40625 Z M 29.8125 15.9375 "/>
<path style=" stroke:none;fill-rule:nonzero;fill:rgb(100%,100%,100%);fill-opacity:1;" d="M 14.8125 41.71875 L 28.875 41.71875 L 28.875 44.0625 L 14.8125 44.0625 Z M 14.8125 41.71875 "/>
</g>
</svg>
