<?xml version="1.0" encoding="UTF-8"?>
<svg xmlns="http://www.w3.org/2000/svg" xmlns:xlink="http://www.w3.org/1999/xlink" width="60pt" height="42pt" viewBox="0 0 60 42" version="1.1">
<g id="surface1">
<path style=" stroke:none;fill-rule:nonzero;fill:rgb(38.039216%,85.490196%,98.431373%);fill-opacity:1;" d="M 47.476562 20.800781 C 47.476562 18.519531 44.574219 16.359375 40.132812 15.019531 C 41.15625 10.558594 40.703125 7.007812 38.691406 5.871094 C 38.230469 5.605469 37.6875 5.480469 37.097656 5.480469 L 37.097656 7.042969 C 37.425781 7.042969 37.6875 7.105469 37.910156 7.226562 C 38.878906 7.773438 39.296875 9.855469 38.96875 12.535156 C 38.890625 13.195312 38.761719 13.890625 38.605469 14.597656 C 37.210938 14.261719 35.6875 14 34.085938 13.832031 C 33.125 12.535156 32.125 11.359375 31.121094 10.324219 C 33.441406 8.199219 35.621094 7.035156 37.105469 7.035156 L 37.105469 5.472656 C 35.148438 5.472656 32.582031 6.847656 29.988281 9.230469 C 27.394531 6.859375 24.832031 5.5 22.875 5.5 L 22.875 7.0625 C 24.347656 7.0625 26.535156 8.222656 28.855469 10.332031 C 27.859375 11.367188 26.863281 12.535156 25.914062 13.832031 C 24.304688 14 22.78125 14.261719 21.386719 14.605469 C 21.222656 13.902344 21.101562 13.222656 21.015625 12.570312 C 20.679688 9.890625 21.09375 7.808594 22.054688 7.253906 C 22.269531 7.125 22.546875 7.070312 22.875 7.070312 L 22.875 5.507812 C 22.273438 5.507812 21.734375 5.632812 21.265625 5.902344 C 19.261719 7.035156 18.8125 10.578125 19.847656 15.027344 C 15.417969 16.375 12.53125 18.527344 12.53125 20.800781 C 12.53125 23.082031 15.429688 25.242188 19.875 26.582031 C 18.851562 31.042969 19.304688 34.59375 21.3125 35.726562 C 21.777344 35.996094 22.320312 36.121094 22.917969 36.121094 C 24.875 36.121094 27.441406 34.746094 30.03125 32.359375 C 32.625 34.734375 35.1875 36.09375 37.144531 36.09375 C 37.746094 36.09375 38.289062 35.96875 38.757812 35.699219 C 40.757812 34.5625 41.207031 31.019531 40.175781 26.574219 C 44.589844 25.234375 47.476562 23.074219 47.476562 20.800781 Z M 38.199219 16.121094 C 37.9375 17.027344 37.609375 17.957031 37.238281 18.894531 C 36.945312 18.332031 36.640625 17.769531 36.308594 17.207031 C 35.980469 16.644531 35.628906 16.101562 35.28125 15.566406 C 36.292969 15.714844 37.269531 15.894531 38.199219 16.121094 Z M 34.9375 23.589844 C 34.382812 24.539062 33.8125 25.4375 33.222656 26.269531 C 32.160156 26.363281 31.085938 26.414062 30.003906 26.414062 C 28.929688 26.414062 27.851562 26.363281 26.796875 26.277344 C 26.207031 25.445312 25.632812 24.554688 25.074219 23.613281 C 24.535156 22.695312 24.042969 21.761719 23.59375 20.820312 C 24.035156 19.882812 24.535156 18.941406 25.070312 18.019531 C 25.625 17.074219 26.195312 16.179688 26.785156 15.339844 C 27.847656 15.25 28.921875 15.203125 30.003906 15.203125 C 31.078125 15.203125 32.152344 15.25 33.207031 15.335938 C 33.800781 16.171875 34.375 17.0625 34.929688 18 C 35.472656 18.921875 35.964844 19.851562 36.414062 20.792969 C 35.964844 21.734375 35.472656 22.671875 34.9375 23.589844 Z M 37.238281 22.679688 C 37.625 23.621094 37.953125 24.558594 38.222656 25.472656 C 37.289062 25.699219 36.308594 25.886719 35.289062 26.035156 C 35.636719 25.492188 35.984375 24.9375 36.3125 24.371094 C 36.640625 23.808594 36.945312 23.242188 37.238281 22.679688 Z M 30.019531 30.164062 C 29.355469 29.492188 28.691406 28.742188 28.039062 27.921875 C 28.679688 27.949219 29.335938 27.96875 29.996094 27.96875 C 30.664062 27.96875 31.328125 27.957031 31.976562 27.921875 C 31.335938 28.742188 30.671875 29.492188 30.019531 30.164062 Z M 24.71875 26.035156 C 23.707031 25.886719 22.730469 25.703125 21.800781 25.480469 C 22.0625 24.574219 22.390625 23.640625 22.761719 22.707031 C 23.054688 23.269531 23.359375 23.832031 23.691406 24.394531 C 24.027344 24.953125 24.371094 25.5 24.71875 26.035156 Z M 29.980469 11.433594 C 30.644531 12.109375 31.308594 12.859375 31.960938 13.679688 C 31.320312 13.652344 30.664062 13.628906 30.003906 13.628906 C 29.335938 13.628906 28.671875 13.644531 28.023438 13.679688 C 28.664062 12.859375 29.328125 12.109375 29.980469 11.433594 Z M 24.710938 15.566406 C 24.363281 16.109375 24.015625 16.660156 23.6875 17.230469 C 23.359375 17.789062 23.054688 18.351562 22.761719 18.914062 C 22.375 17.972656 22.046875 17.03125 21.777344 16.121094 C 22.710938 15.902344 23.691406 15.714844 24.710938 15.566406 Z M 18.265625 24.351562 C 15.746094 23.289062 14.113281 21.902344 14.113281 20.800781 C 14.113281 19.699219 15.746094 18.304688 18.265625 17.25 C 18.878906 16.992188 19.546875 16.757812 20.238281 16.542969 C 20.644531 17.917969 21.179688 19.347656 21.839844 20.8125 C 21.183594 22.273438 20.660156 23.699219 20.257812 25.066406 C 19.554688 24.847656 18.886719 24.609375 18.265625 24.351562 Z M 22.097656 34.375 C 21.128906 33.828125 20.710938 31.742188 21.039062 29.0625 C 21.113281 28.402344 21.242188 27.707031 21.402344 27 C 22.796875 27.339844 24.320312 27.597656 25.921875 27.765625 C 26.886719 29.0625 27.882812 30.242188 28.882812 31.273438 C 26.5625 33.398438 24.382812 34.5625 22.902344 34.5625 C 22.582031 34.554688 22.3125 34.492188 22.097656 34.375 Z M 38.992188 29.027344 C 39.324219 31.707031 38.914062 33.792969 37.953125 34.347656 C 37.738281 34.472656 37.460938 34.527344 37.132812 34.527344 C 35.65625 34.527344 33.472656 33.371094 31.152344 31.261719 C 32.148438 30.226562 33.144531 29.054688 34.09375 27.761719 C 35.703125 27.589844 37.226562 27.332031 38.621094 26.988281 C 38.785156 27.695312 38.914062 28.375 38.992188 29.027344 Z M 41.734375 24.351562 C 41.121094 24.609375 40.453125 24.839844 39.761719 25.058594 C 39.355469 23.683594 38.820312 22.253906 38.160156 20.785156 C 38.816406 19.328125 39.339844 17.902344 39.742188 16.535156 C 40.445312 16.75 41.113281 16.992188 41.742188 17.25 C 44.261719 18.308594 45.894531 19.699219 45.894531 20.800781 C 45.886719 21.902344 44.253906 23.296875 41.734375 24.351562 Z M 41.734375 24.351562 "/>
<path style=" stroke:none;fill-rule:nonzero;fill:rgb(38.039216%,85.490196%,98.431373%);fill-opacity:1;" d="M 33.25 20.800781 C 33.25 22.570312 31.792969 24.003906 29.996094 24.003906 C 28.199219 24.003906 26.742188 22.570312 26.742188 20.800781 C 26.742188 19.03125 28.199219 17.59375 29.996094 17.59375 C 31.792969 17.59375 33.25 19.03125 33.25 20.800781 Z M 33.25 20.800781 "/>
</g>
</svg>
