<?xml version="1.0" encoding="UTF-8"?>
<svg xmlns="http://www.w3.org/2000/svg" xmlns:xlink="http://www.w3.org/1999/xlink" width="60pt" height="57pt" viewBox="0 0 60 57" version="1.1">
<g id="surface1">
<path style=" stroke:none;fill-rule:nonzero;fill:rgb(46.27451%,29.019608%,73.72549%);fill-opacity:1;" d="M 41.574219 39.566406 C 43.789062 39.339844 45.46875 37.441406 45.390625 35.160156 C 45.3125 32.882812 43.40625 31.0625 41.117188 31.0625 L 40.964844 31.0625 C 38.597656 31.136719 36.765625 33.109375 36.839844 35.464844 C 36.917969 36.605469 37.375 37.59375 38.0625 38.273438 C 35.464844 43.363281 31.496094 47.085938 25.539062 50.199219 C 21.492188 52.324219 17.292969 53.085938 13.09375 52.550781 C 9.660156 52.097656 6.988281 50.578125 5.304688 48.070312 C 2.863281 44.351562 2.632812 40.324219 4.695312 36.300781 C 6.144531 33.414062 8.4375 31.289062 9.886719 30.226562 C 9.582031 29.238281 9.125 27.566406 8.894531 26.355469 C -2.175781 34.328125 -1.03125 45.109375 2.328125 50.199219 C 4.847656 53.996094 9.964844 56.347656 15.613281 56.347656 C 17.140625 56.347656 18.667969 56.199219 20.195312 55.820312 C 29.96875 53.917969 37.375 48.148438 41.574219 39.566406 Z M 55.011719 30.148438 C 49.210938 23.390625 40.65625 19.667969 30.882812 19.667969 L 29.664062 19.667969 C 28.976562 18.304688 27.523438 17.390625 25.921875 17.390625 L 25.769531 17.390625 C 23.402344 17.46875 21.570312 19.441406 21.644531 21.796875 C 21.722656 24.074219 23.628906 25.898438 25.921875 25.898438 L 26.074219 25.898438 C 27.753906 25.820312 29.207031 24.757812 29.816406 23.316406 L 31.191406 23.316406 C 36.992188 23.316406 42.488281 24.984375 47.453125 28.25 C 51.269531 30.757812 54.019531 34.023438 55.546875 37.972656 C 56.84375 41.160156 56.769531 44.273438 55.394531 46.933594 C 53.253906 50.957031 49.667969 53.160156 44.933594 53.160156 C 41.878906 53.160156 38.980469 52.25 37.449219 51.5625 C 36.613281 52.324219 35.082031 53.539062 34.015625 54.296875 C 37.296875 55.820312 40.65625 56.652344 43.863281 56.652344 C 51.195312 56.652344 56.617188 52.628906 58.675781 48.601562 C 60.890625 44.199219 60.738281 36.605469 55.011719 30.148438 Z M 16.222656 40.855469 C 16.300781 43.136719 18.207031 44.957031 20.5 44.957031 L 20.652344 44.957031 C 23.019531 44.882812 24.851562 42.90625 24.777344 40.554688 C 24.699219 38.273438 22.789062 36.453125 20.5 36.453125 L 20.347656 36.453125 C 20.195312 36.453125 19.964844 36.453125 19.8125 36.527344 C 16.683594 31.363281 15.382812 25.746094 15.84375 19.667969 C 16.148438 15.113281 17.675781 11.164062 20.347656 7.902344 C 22.5625 5.089844 26.839844 3.722656 29.738281 3.644531 C 37.832031 3.496094 41.269531 13.519531 41.5 17.542969 C 42.488281 17.773438 44.171875 18.304688 45.3125 18.683594 C 44.398438 6.378906 36.765625 0.00390625 29.433594 0.00390625 C 22.5625 0.00390625 16.226562 4.9375 13.703125 12.226562 C 10.191406 21.949219 12.484375 31.289062 16.757812 38.65625 C 16.378906 39.1875 16.148438 40.023438 16.222656 40.855469 Z M 16.222656 40.855469 "/>
</g>
</svg>
