<svg xmlns="http://www.w3.org/2000/svg" xmlns:xlink="http://www.w3.org/1999/xlink" width="70" height="70" version="1.1" style=""><rect id="backgroundrect" width="100%" height="100%" x="0" y="0" fill="none" stroke="none"/>

<g class="currentLayer" style=""><title>Layer 1</title><g id="surface1" class="" fill="#0b0bd5" fill-opacity="1">
<path style="stroke: none; fill-rule: evenodd;" d="M 58.457031 4.960938 L 59.925781 7.339844 C 60.308594 7.96875 60.214844 8.867188 59.703125 9.34375 L 58.144531 10.800781 C 58.425781 11.726562 58.609375 12.71875 58.683594 13.730469 L 60.457031 14.03125 C 61.09375 14.136719 61.535156 14.859375 61.449219 15.640625 L 61.121094 18.609375 C 61.035156 19.390625 60.445312 19.941406 59.8125 19.828125 L 57.871094 19.5 C 57.523438 20.429688 57.082031 21.28125 56.5625 22.039062 L 57.648438 23.796875 C 58.035156 24.425781 57.933594 25.328125 57.421875 25.800781 L 55.488281 27.609375 C 54.976562 28.082031 54.246094 27.957031 53.859375 27.335938 L 52.675781 25.417969 C 51.914062 25.765625 51.113281 25.988281 50.285156 26.078125 L 50.042969 28.265625 C 49.957031 29.046875 49.367188 29.589844 48.734375 29.484375 L 46.320312 29.078125 C 45.6875 28.976562 45.246094 28.25 45.328125 27.46875 L 45.597656 25.082031 C 44.847656 24.65625 44.148438 24.113281 43.53125 23.476562 L 42.101562 24.808594 C 41.589844 25.285156 40.859375 25.164062 40.472656 24.539062 L 39.003906 22.160156 C 38.617188 21.53125 38.714844 20.632812 39.226562 20.15625 L 40.785156 18.699219 C 40.503906 17.761719 40.320312 16.78125 40.246094 15.769531 L 38.472656 15.46875 C 37.835938 15.363281 37.386719 14.636719 37.480469 13.855469 L 37.808594 10.890625 C 37.898438 10.109375 38.484375 9.566406 39.117188 9.671875 L 41.058594 9.996094 C 41.402344 9.078125 41.847656 8.21875 42.363281 7.457031 L 41.277344 5.699219 C 40.894531 5.078125 40.988281 4.179688 41.5 3.703125 L 43.433594 1.898438 C 43.945312 1.421875 44.675781 1.542969 45.0625 2.167969 L 46.25 4.089844 C 47.003906 3.738281 47.808594 3.515625 48.628906 3.425781 L 48.875 1.242188 C 48.960938 0.460938 49.550781 -0.0898438 50.183594 0.015625 L 52.59375 0.417969 C 53.230469 0.523438 53.679688 1.25 53.589844 2.03125 L 53.320312 4.417969 C 54.074219 4.84375 54.769531 5.386719 55.390625 6.027344 L 56.820312 4.695312 C 57.332031 4.214844 58.0625 4.332031 58.457031 4.960938 Z M 16.980469 46.828125 L 16.980469 35.316406 L 21.800781 35.316406 C 22.695312 35.316406 23.378906 35.40625 23.847656 35.601562 C 24.320312 35.792969 24.703125 36.140625 24.988281 36.648438 C 25.277344 37.167969 25.425781 37.789062 25.425781 38.519531 C 25.425781 39.15625 25.3125 39.714844 25.089844 40.171875 C 24.871094 40.640625 24.5625 41.019531 24.175781 41.304688 C 23.933594 41.484375 23.59375 41.636719 23.160156 41.757812 C 23.507812 41.902344 23.757812 42.035156 23.910156 42.183594 C 24.019531 42.28125 24.171875 42.484375 24.371094 42.789062 C 24.570312 43.097656 24.703125 43.339844 24.773438 43.507812 L 26.179688 46.835938 L 22.914062 46.835938 L 21.371094 43.328125 C 21.171875 42.875 21 42.574219 20.847656 42.441406 C 20.636719 42.265625 20.398438 42.175781 20.136719 42.175781 L 19.882812 42.175781 L 19.882812 46.835938 L 16.980469 46.835938 Z M 27.179688 66.875 L 21.777344 66.875 L 21 70 L 16.132812 70 L 21.9375 51.03125 L 27.15625 51.03125 L 32.933594 70 L 27.945312 70 Z M 26.167969 62.765625 L 24.484375 55.941406 L 22.792969 62.765625 Z M 34.058594 51.03125 L 41.988281 51.03125 C 43.71875 51.03125 45.011719 51.53125 45.867188 52.542969 C 46.726562 53.554688 47.15625 55 47.15625 56.863281 C 47.15625 58.78125 46.683594 60.28125 45.75 61.363281 C 44.8125 62.445312 43.378906 62.980469 41.457031 62.980469 L 38.839844 62.980469 L 38.839844 70 L 34.058594 70 Z M 38.839844 59.136719 L 40.015625 59.136719 C 40.9375 59.136719 41.589844 58.941406 41.964844 58.542969 C 42.339844 58.152344 42.527344 57.644531 42.527344 57.035156 C 42.527344 56.445312 42.363281 55.933594 42.039062 55.523438 C 41.714844 55.109375 41.101562 54.902344 40.207031 54.902344 L 38.839844 54.902344 Z M 49.085938 51.03125 L 53.867188 51.03125 L 53.867188 70 L 49.085938 70 Z M 19.882812 39.992188 L 21.101562 39.992188 C 21.234375 39.992188 21.488281 39.9375 21.867188 39.832031 C 22.0625 39.78125 22.21875 39.664062 22.339844 39.46875 C 22.464844 39.273438 22.519531 39.050781 22.519531 38.800781 C 22.519531 38.429688 22.425781 38.136719 22.230469 37.941406 C 22.039062 37.738281 21.679688 37.640625 21.152344 37.640625 L 19.882812 37.640625 Z M 26.734375 35.316406 L 34.476562 35.316406 L 34.476562 37.773438 L 29.640625 37.773438 L 29.640625 39.609375 L 34.125 39.609375 L 34.125 41.953125 L 29.640625 41.953125 L 29.640625 44.21875 L 34.621094 44.21875 L 34.621094 46.824219 L 26.734375 46.824219 Z M 35.304688 43.019531 L 38.050781 42.8125 C 38.109375 43.363281 38.234375 43.773438 38.414062 44.058594 C 38.714844 44.519531 39.140625 44.757812 39.691406 44.757812 C 40.097656 44.757812 40.421875 44.640625 40.644531 44.402344 C 40.863281 44.164062 40.980469 43.886719 40.980469 43.570312 C 40.980469 43.269531 40.871094 43.007812 40.660156 42.769531 C 40.449219 42.53125 39.957031 42.316406 39.179688 42.097656 C 37.914062 41.75 37.015625 41.28125 36.46875 40.703125 C 35.925781 40.125 35.652344 39.386719 35.652344 38.484375 C 35.652344 37.890625 35.792969 37.332031 36.070312 36.808594 C 36.351562 36.289062 36.769531 35.867188 37.332031 35.570312 C 37.894531 35.269531 38.660156 35.121094 39.632812 35.121094 C 40.832031 35.121094 41.738281 35.394531 42.367188 35.945312 C 42.992188 36.496094 43.367188 37.363281 43.484375 38.5625 L 40.769531 38.765625 C 40.695312 38.242188 40.542969 37.855469 40.316406 37.625 C 40.082031 37.390625 39.757812 37.269531 39.355469 37.269531 C 39.023438 37.269531 38.765625 37.363281 38.597656 37.535156 C 38.425781 37.710938 38.339844 37.925781 38.339844 38.179688 C 38.339844 38.359375 38.414062 38.519531 38.550781 38.671875 C 38.6875 38.820312 39.003906 38.964844 39.515625 39.097656 C 40.78125 39.433594 41.6875 39.777344 42.230469 40.117188 C 42.777344 40.460938 43.179688 40.886719 43.421875 41.394531 C 43.671875 41.898438 43.796875 42.46875 43.796875 43.097656 C 43.796875 43.835938 43.632812 44.511719 43.296875 45.132812 C 42.96875 45.753906 42.503906 46.230469 41.910156 46.550781 C 41.3125 46.871094 40.566406 47.03125 39.65625 47.03125 C 38.070312 47.03125 36.960938 46.65625 36.351562 45.902344 C 35.738281 45.132812 35.390625 44.179688 35.304688 43.019531 Z M 44.21875 35.316406 L 53.015625 35.316406 L 53.015625 38.164062 L 50.066406 38.164062 L 50.066406 46.828125 L 47.171875 46.828125 L 47.171875 38.164062 L 44.21875 38.164062 Z M 34.484375 7.996094 C 33.445312 7.898438 32.394531 7.910156 31.359375 8.039062 C 28.164062 8.414062 25.0625 9.84375 22.5 12.292969 C 19.53125 15.117188 17.28125 19.347656 16.410156 24.949219 L 16.140625 26.699219 L 14.722656 27.007812 C 13.332031 27.308594 12.089844 27.71875 11 28.242188 C 9.945312 28.746094 9.003906 29.367188 8.179688 30.097656 C 7.523438 30.683594 6.957031 31.339844 6.472656 32.050781 C 4.980469 34.25 4.289062 37.007812 4.308594 39.796875 C 4.324219 42.628906 5.074219 45.488281 6.457031 47.839844 C 6.972656 48.714844 7.570312 49.515625 8.25 50.214844 C 8.941406 50.917969 9.71875 51.503906 10.59375 51.945312 C 11.085938 52.195312 11.613281 52.402344 12.164062 52.570312 L 12.164062 57.796875 C 11.027344 57.546875 9.984375 57.167969 9.007812 56.675781 C 7.722656 56.019531 6.582031 55.175781 5.578125 54.140625 C 4.625 53.164062 3.789062 52.054688 3.082031 50.847656 C 1.191406 47.640625 0.171875 43.71875 0.148438 39.8125 C 0.125 35.863281 1.125 31.933594 3.28125 28.753906 C 3.976562 27.71875 4.800781 26.769531 5.742188 25.933594 C 6.835938 24.957031 8.089844 24.132812 9.507812 23.457031 C 10.484375 22.988281 11.527344 22.597656 12.628906 22.285156 C 13.875 16.1875 16.535156 11.492188 19.957031 8.234375 C 23.15625 5.183594 27.007812 3.40625 30.972656 2.9375 C 33.054688 2.691406 35.164062 2.804688 37.230469 3.277344 C 37.183594 3.507812 37.144531 3.738281 37.121094 3.976562 L 37.117188 4.019531 C 37.074219 4.417969 37.058594 4.8125 37.074219 5.21875 C 36.640625 5.429688 36.230469 5.714844 35.863281 6.0625 L 35.84375 6.078125 C 35.296875 6.585938 34.828125 7.242188 34.484375 7.996094 Z M 64.496094 21.390625 C 64.8125 21.746094 65.121094 22.117188 65.421875 22.515625 C 66.027344 23.316406 66.601562 24.222656 67.140625 25.234375 C 68.953125 28.667969 69.886719 33.253906 69.84375 37.738281 C 69.804688 42.140625 68.839844 46.523438 66.867188 49.746094 C 65.578125 51.847656 63.929688 53.5625 61.949219 54.921875 C 60.59375 55.859375 59.066406 56.632812 57.40625 57.261719 L 57.40625 51.851562 C 58.300781 51.441406 59.136719 50.980469 59.902344 50.457031 C 61.394531 49.433594 62.613281 48.183594 63.527344 46.683594 C 64.945312 44.359375 65.640625 41.074219 65.671875 37.703125 C 65.703125 34.167969 65 30.613281 63.632812 28.035156 C 63.242188 27.285156 62.8125 26.617188 62.359375 26.015625 C 62.183594 25.785156 62.007812 25.570312 61.824219 25.359375 C 61.851562 25.011719 61.863281 24.65625 61.847656 24.300781 C 62.285156 24.089844 62.691406 23.804688 63.0625 23.457031 L 63.078125 23.441406 C 63.664062 22.890625 64.148438 22.195312 64.496094 21.390625 Z M 50.109375 8.929688 C 52.726562 9.371094 54.550781 12.335938 54.195312 15.550781 C 53.835938 18.769531 51.425781 21.023438 48.8125 20.582031 C 46.195312 20.140625 44.363281 17.175781 44.726562 13.960938 C 45.089844 10.746094 47.496094 8.492188 50.109375 8.929688 Z M 50.109375 8.929688 " id="svg_1" fill="#0b0bd5" fill-opacity="1"/>
</g></g></svg>