<?xml version="1.0" encoding="UTF-8"?>
<svg xmlns="http://www.w3.org/2000/svg" xmlns:xlink="http://www.w3.org/1999/xlink" width="60pt" height="45pt" viewBox="0 0 60 45" version="1.1">
<g id="surface1">
<path style=" stroke:none;fill-rule:nonzero;fill:rgb(81.176471%,39.215686%,60.392157%);fill-opacity:1;" d="M 51.632812 25.78125 C 49.535156 25.792969 47.71875 26.296875 46.195312 27.046875 C 45.632812 25.933594 45.070312 24.964844 44.976562 24.238281 C 44.871094 23.398438 44.742188 22.882812 44.871094 21.878906 C 45 20.875 45.585938 19.449219 45.585938 19.332031 C 45.574219 19.226562 45.457031 18.710938 44.25 18.699219 C 43.042969 18.6875 42 18.933594 41.882812 19.25 C 41.765625 19.566406 41.53125 20.289062 41.378906 21.039062 C 41.167969 22.136719 38.964844 26.027344 37.710938 28.074219 C 37.300781 27.277344 36.949219 26.578125 36.878906 26.015625 C 36.773438 25.175781 36.644531 24.660156 36.773438 23.65625 C 36.902344 22.652344 37.488281 21.226562 37.488281 21.109375 C 37.476562 21.003906 37.359375 20.488281 36.152344 20.476562 C 34.945312 20.464844 33.902344 20.710938 33.785156 21.027344 C 33.667969 21.339844 33.539062 22.089844 33.28125 22.8125 C 33.035156 23.539062 30.105469 30.035156 29.34375 31.730469 C 28.957031 32.597656 28.617188 33.285156 28.371094 33.753906 C 28.125 34.222656 28.359375 33.789062 28.335938 33.835938 C 28.125 34.234375 28.007812 34.453125 28.007812 34.453125 L 28.007812 34.464844 C 27.84375 34.757812 27.667969 35.039062 27.585938 35.039062 C 27.527344 35.039062 27.410156 34.257812 27.609375 33.179688 C 28.042969 30.925781 29.097656 27.40625 29.085938 27.277344 C 29.085938 27.21875 29.285156 26.601562 28.40625 26.285156 C 27.550781 25.96875 27.246094 26.496094 27.175781 26.496094 C 27.105469 26.496094 27.046875 26.683594 27.046875 26.683594 C 27.046875 26.683594 27.996094 22.71875 25.230469 22.71875 C 23.496094 22.71875 21.105469 24.601562 19.921875 26.320312 C 19.171875 26.730469 17.578125 27.59375 15.890625 28.519531 C 15.246094 28.867188 14.578125 29.242188 13.945312 29.582031 L 13.816406 29.441406 C 10.464844 25.875 4.265625 23.351562 4.523438 18.558594 C 4.617188 16.820312 5.226562 12.226562 16.429688 6.660156 C 25.605469 2.105469 32.953125 3.355469 34.230469 6.136719 C 36.046875 10.109375 30.304688 17.496094 20.765625 18.558594 C 17.132812 18.96875 15.222656 17.566406 14.742188 17.039062 C 14.238281 16.492188 14.167969 16.46875 13.980469 16.574219 C 13.675781 16.738281 13.863281 17.226562 13.980469 17.519531 C 14.261719 18.257812 15.433594 19.566406 17.425781 20.21875 C 19.171875 20.792969 23.4375 21.109375 28.59375 19.121094 C 34.371094 16.886719 38.882812 10.695312 37.558594 5.515625 C 36.210938 0.246094 27.445312 -1.484375 19.160156 1.449219 C 14.226562 3.203125 8.882812 5.9375 5.039062 9.523438 C 0.46875 13.78125 -0.257812 17.496094 0.046875 19.039062 C 1.113281 24.542969 8.71875 28.132812 11.765625 30.785156 C 11.613281 30.867188 11.472656 30.949219 11.34375 31.019531 C 9.820312 31.765625 4.019531 34.792969 2.566406 37.996094 C 0.925781 41.621094 2.824219 44.226562 4.089844 44.578125 C 8.003906 45.664062 12.011719 43.710938 14.179688 40.496094 C 16.335938 37.285156 16.078125 33.109375 15.082031 31.207031 L 15.046875 31.136719 L 16.242188 30.433594 C 17.015625 29.980469 17.777344 29.558594 18.445312 29.195312 C 18.070312 30.210938 17.800781 31.417969 17.660156 33.167969 C 17.496094 35.226562 18.339844 37.890625 19.453125 38.941406 C 19.945312 39.398438 20.53125 39.410156 20.894531 39.410156 C 22.183594 39.410156 22.769531 38.347656 23.414062 37.074219 C 24.210938 35.519531 24.914062 33.71875 24.914062 33.71875 C 24.914062 33.71875 24.035156 38.59375 26.4375 38.59375 C 27.316406 38.59375 28.195312 37.457031 28.59375 36.875 L 28.59375 36.886719 C 28.59375 36.886719 28.617188 36.851562 28.664062 36.769531 C 28.714844 36.695312 28.761719 36.621094 28.804688 36.546875 L 28.804688 36.523438 C 29.15625 35.914062 29.941406 34.523438 31.113281 32.222656 C 32.625 29.253906 34.078125 25.539062 34.078125 25.539062 C 34.078125 25.539062 34.21875 26.449219 34.652344 27.945312 C 34.910156 28.832031 35.472656 29.804688 35.90625 30.75 C 35.554688 31.242188 35.34375 31.519531 35.34375 31.519531 L 35.355469 31.53125 C 35.074219 31.90625 34.757812 32.304688 34.429688 32.703125 C 33.234375 34.128906 31.804688 35.753906 31.617188 36.21875 C 31.394531 36.769531 31.441406 37.179688 31.875 37.503906 C 32.191406 37.738281 32.753906 37.785156 33.351562 37.738281 C 34.429688 37.667969 35.179688 37.398438 35.554688 37.238281 C 36.140625 37.027344 36.808594 36.710938 37.453125 36.242188 C 38.625 35.378906 39.339844 34.152344 39.269531 32.515625 C 39.234375 31.613281 38.941406 30.726562 38.578125 29.886719 C 38.683594 29.734375 38.789062 29.582031 38.894531 29.417969 C 40.746094 26.71875 42.175781 23.75 42.175781 23.75 C 42.175781 23.75 42.316406 24.660156 42.75 26.15625 C 42.972656 26.917969 43.417969 27.746094 43.816406 28.566406 C 42.082031 29.980469 40.992188 31.613281 40.617188 32.691406 C 39.925781 34.675781 40.464844 35.578125 41.484375 35.789062 C 41.941406 35.882812 42.597656 35.671875 43.089844 35.460938 C 43.699219 35.261719 44.4375 34.921875 45.117188 34.421875 C 46.289062 33.554688 47.414062 32.351562 47.355469 30.726562 C 47.320312 29.980469 47.121094 29.242188 46.851562 28.542969 C 48.328125 27.933594 50.238281 27.582031 52.664062 27.875 C 57.878906 28.484375 58.910156 31.730469 58.710938 33.085938 C 58.511719 34.441406 57.421875 35.191406 57.058594 35.425781 C 56.695312 35.648438 56.578125 35.730469 56.613281 35.890625 C 56.660156 36.136719 56.824219 36.125 57.140625 36.078125 C 57.574219 36.007812 59.882812 34.96875 59.976562 32.46875 C 60.117188 29.253906 57.058594 25.746094 51.632812 25.78125 Z M 11.414062 39.304688 C 9.691406 41.1875 7.265625 41.898438 6.234375 41.292969 C 5.121094 40.648438 5.554688 37.878906 7.675781 35.882812 C 8.964844 34.664062 10.640625 33.542969 11.742188 32.855469 C 11.988281 32.703125 12.363281 32.480469 12.808594 32.210938 C 12.878906 32.164062 12.925781 32.140625 12.925781 32.140625 C 13.007812 32.09375 13.101562 32.035156 13.195312 31.976562 C 13.980469 34.828125 13.230469 37.332031 11.414062 39.304688 Z M 24.011719 30.761719 C 23.414062 32.222656 22.148438 35.972656 21.386719 35.765625 C 20.730469 35.589844 20.332031 32.75 21.257812 29.945312 C 21.726562 28.53125 22.722656 26.847656 23.308594 26.191406 C 24.257812 25.140625 25.289062 24.789062 25.546875 25.222656 C 25.851562 25.78125 24.386719 29.851562 24.011719 30.761719 Z M 34.40625 35.71875 C 34.148438 35.847656 33.914062 35.9375 33.808594 35.871094 C 33.726562 35.824219 33.914062 35.648438 33.914062 35.648438 C 33.914062 35.648438 35.214844 34.257812 35.730469 33.613281 C 36.023438 33.238281 36.375 32.808594 36.75 32.316406 L 36.75 32.457031 C 36.75 34.140625 35.132812 35.261719 34.40625 35.71875 Z M 42.421875 33.894531 C 42.234375 33.753906 42.257812 33.320312 42.890625 31.964844 C 43.136719 31.429688 43.699219 30.527344 44.671875 29.675781 C 44.789062 30.027344 44.859375 30.363281 44.847656 30.679688 C 44.835938 32.785156 43.335938 33.566406 42.421875 33.894531 Z M 42.421875 33.894531 "/>
</g>
</svg>
