<?xml version="1.0" encoding="UTF-8"?>
<svg xmlns="http://www.w3.org/2000/svg" xmlns:xlink="http://www.w3.org/1999/xlink" width="10pt" height="10pt" viewBox="0 0 10 10" version="1.1">
<g id="surface1">
<path style=" stroke:none;fill-rule:nonzero;fill:rgb(11.372549%,63.137255%,94.901961%);fill-opacity:1;" d="M 10 1.898438 C 9.632812 2.0625 9.238281 2.171875 8.820312 2.222656 C 9.246094 1.96875 9.570312 1.566406 9.722656 1.085938 C 9.328125 1.320312 8.886719 1.492188 8.421875 1.582031 C 8.046875 1.183594 7.515625 0.9375 6.925781 0.9375 C 5.792969 0.9375 4.871094 1.855469 4.871094 2.988281 C 4.871094 3.144531 4.890625 3.300781 4.925781 3.457031 C 3.21875 3.371094 1.707031 2.550781 0.695312 1.3125 C 0.519531 1.617188 0.417969 1.96875 0.417969 2.34375 C 0.417969 3.054688 0.78125 3.683594 1.332031 4.050781 C 1.003906 4.039062 0.6875 3.953125 0.402344 3.792969 L 0.402344 3.820312 C 0.402344 4.816406 1.109375 5.644531 2.046875 5.832031 C 1.871094 5.878906 1.691406 5.902344 1.507812 5.902344 C 1.378906 5.902344 1.25 5.890625 1.121094 5.867188 C 1.382812 6.683594 2.140625 7.277344 3.039062 7.292969 C 2.335938 7.84375 1.449219 8.171875 0.488281 8.171875 C 0.324219 8.171875 0.160156 8.160156 0 8.140625 C 0.910156 8.722656 1.988281 9.0625 3.144531 9.0625 C 6.917969 9.0625 8.980469 5.9375 8.980469 3.226562 C 8.980469 3.136719 8.980469 3.050781 8.976562 2.960938 C 9.378906 2.671875 9.722656 2.3125 10 1.898438 Z M 10 1.898438 "/>
</g>
</svg>
