<?xml version="1.0" encoding="UTF-8"?>
<svg xmlns="http://www.w3.org/2000/svg" xmlns:xlink="http://www.w3.org/1999/xlink" width="60pt" height="60pt" viewBox="0 0 60 60" version="1.1">
<g id="surface1">
<path style=" stroke:none;fill-rule:nonzero;fill:rgb(11.372549%,63.137255%,94.901961%);fill-opacity:1;" d="M 60 11.390625 C 57.792969 12.371094 55.421875 13.027344 52.929688 13.328125 C 55.472656 11.804688 57.425781 9.390625 58.34375 6.515625 C 55.964844 7.925781 53.328125 8.953125 50.527344 9.5 C 48.28125 7.113281 45.085938 5.617188 41.542969 5.617188 C 34.746094 5.617188 29.234375 11.128906 29.234375 17.933594 C 29.234375 18.875 29.339844 19.8125 29.550781 20.734375 C 19.316406 20.21875 10.25 15.316406 4.179688 7.871094 C 3.121094 9.695312 2.511719 11.804688 2.511719 14.058594 C 2.511719 18.328125 4.6875 22.097656 7.988281 24.304688 C 6.03125 24.242188 4.121094 23.714844 2.410156 22.765625 L 2.410156 22.925781 C 2.410156 28.886719 6.652344 33.863281 12.289062 34.996094 C 11.230469 35.28125 10.140625 35.421875 9.042969 35.421875 C 8.269531 35.421875 7.492188 35.351562 6.730469 35.207031 C 8.292969 40.09375 12.839844 43.65625 18.226562 43.75 C 14.011719 47.054688 8.703125 49.023438 2.9375 49.023438 C 1.945312 49.023438 0.964844 48.964844 0 48.851562 C 5.449219 52.347656 11.917969 54.382812 18.867188 54.382812 C 41.511719 54.382812 53.890625 35.625 53.890625 19.359375 C 53.890625 18.828125 53.878906 18.296875 53.855469 17.769531 C 56.261719 16.027344 58.347656 13.867188 59.996094 11.398438 Z M 60 11.390625 "/>
</g>
</svg>
