<?xml version="1.0" encoding="UTF-8"?>
<svg xmlns="http://www.w3.org/2000/svg" xmlns:xlink="http://www.w3.org/1999/xlink" width="60pt" height="59pt" viewBox="0 0 60 59" version="1.1">
<g id="surface1">
<path style=" stroke:none;fill-rule:nonzero;fill:rgb(14.117647%,53.72549%,79.215686%);fill-opacity:1;" d="M 1.714844 21.003906 C 1.714844 21.003906 0.296875 19.984375 2 18.621094 L 5.96875 15.078125 C 5.96875 15.078125 7.105469 13.886719 8.308594 14.925781 L 44.949219 42.59375 L 44.949219 55.863281 C 44.949219 55.863281 44.933594 57.945312 42.253906 57.714844 Z M 1.714844 21.003906 "/>
<path style=" stroke:none;fill-rule:nonzero;fill:rgb(6.27451%,43.921569%,70.196078%);fill-opacity:1;" d="M 11.160156 29.558594 L 1.714844 38.121094 C 1.714844 38.121094 0.746094 38.839844 1.714844 40.128906 L 6.101562 44.105469 C 6.101562 44.105469 7.140625 45.21875 8.679688 43.953125 L 18.695312 36.378906 Z M 11.160156 29.558594 "/>
<path style=" stroke:none;fill-rule:nonzero;fill:rgb(3.137255%,46.666667%,72.54902%);fill-opacity:1;" d="M 27.742188 29.628906 L 45.0625 16.4375 L 44.949219 3.238281 C 44.949219 3.238281 44.210938 0.359375 41.746094 1.859375 L 18.695312 22.78125 Z M 27.742188 29.628906 "/>
<path style=" stroke:none;fill-rule:nonzero;fill:rgb(23.529412%,60%,83.137255%);fill-opacity:1;" d="M 42.253906 57.734375 C 43.257812 58.761719 44.476562 58.421875 44.476562 58.421875 L 57.976562 51.789062 C 59.703125 50.617188 59.464844 49.15625 59.464844 49.15625 L 59.464844 9.542969 C 59.464844 7.800781 57.675781 7.199219 57.675781 7.199219 L 45.976562 1.578125 C 43.421875 0 41.746094 1.859375 41.746094 1.859375 C 41.746094 1.859375 43.898438 0.3125 44.949219 3.238281 L 44.949219 55.621094 C 44.949219 55.980469 44.875 56.332031 44.722656 56.652344 C 44.414062 57.273438 43.742188 57.851562 42.140625 57.609375 Z M 42.253906 57.734375 "/>
</g>
</svg>
