<?xml version="1.0" encoding="UTF-8"?>
<svg xmlns="http://www.w3.org/2000/svg" xmlns:xlink="http://www.w3.org/1999/xlink" width="60pt" height="60pt" viewBox="0 0 60 60" version="1.1">
<defs>
<linearGradient id="linear0" gradientUnits="userSpaceOnUse" x1="45.79" y1="-651.52" x2="78.92" y2="-770.77" gradientTransform="matrix(0.46875,0,0,-0.46875,0,-304.153125)">
<stop offset="0.28" style="stop-color:rgb(0%,80.392157%,84.313725%);stop-opacity:1;"/>
<stop offset="0.94" style="stop-color:rgb(12.54902%,52.54902%,84.313725%);stop-opacity:1;"/>
</linearGradient>
<linearGradient id="linear1" gradientUnits="userSpaceOnUse" x1="56.07" y1="-666.71" x2="112.11" y2="-748.88" gradientTransform="matrix(0.46875,0,0,-0.46875,0,-304.153125)">
<stop offset="0.14" style="stop-color:rgb(100%,94.117647%,27.058824%);stop-opacity:1;"/>
<stop offset="0.37" style="stop-color:rgb(0%,80.392157%,84.313725%);stop-opacity:1;"/>
</linearGradient>
<linearGradient id="linear2" gradientUnits="userSpaceOnUse" x1="111.71" y1="-676.79" x2="119.07" y2="-702.86" gradientTransform="matrix(0.46875,0,0,-0.46875,0,-304.153125)">
<stop offset="0.28" style="stop-color:rgb(0%,80.392157%,84.313725%);stop-opacity:1;"/>
<stop offset="0.94" style="stop-color:rgb(12.54902%,52.54902%,84.313725%);stop-opacity:1;"/>
</linearGradient>
</defs>
<g id="surface1">
<path style=" stroke:none;fill-rule:nonzero;fill:url(#linear0);" d="M 8.0625 54.1875 L 0 6.28125 L 15 0.09375 L 24.46875 5.71875 L 33.28125 1.03125 L 51.46875 8.0625 L 41.25 60 Z M 8.0625 54.1875 "/>
<path style=" stroke:none;fill-rule:nonzero;fill:url(#linear1);" d="M 60 20.34375 L 52.21875 1.21875 L 38.25 0 L 16.5 20.8125 L 22.3125 47.71875 L 33.28125 55.3125 L 60 39.46875 L 53.4375 27.1875 Z M 60 20.34375 "/>
<path style=" stroke:none;fill-rule:nonzero;fill:url(#linear2);" d="M 48 17.4375 L 53.4375 27.1875 L 60 20.34375 L 55.21875 8.4375 Z M 48 17.4375 "/>
<path style=" stroke:none;fill-rule:nonzero;fill:rgb(0%,0%,0%);fill-opacity:1;" d="M 11.25 11.25 L 48.75 11.25 L 48.75 48.75 L 11.25 48.75 Z M 11.25 11.25 "/>
<path style=" stroke:none;fill-rule:nonzero;fill:rgb(100%,100%,100%);fill-opacity:1;" d="M 14.8125 41.71875 L 28.875 41.71875 L 28.875 44.0625 L 14.8125 44.0625 Z M 33.1875 29.4375 L 35.15625 27 C 36.5625 28.125 37.96875 28.875 39.75 28.875 C 41.15625 28.875 42 28.3125 42 27.375 C 42 26.53125 41.4375 26.0625 38.90625 25.40625 C 35.8125 24.5625 33.84375 23.71875 33.84375 20.625 L 33.84375 20.53125 C 33.84375 17.71875 36.09375 15.84375 39.1875 15.84375 C 41.261719 15.835938 43.277344 16.527344 44.90625 17.8125 L 43.125 20.4375 C 41.992188 19.554688 40.621094 19.03125 39.1875 18.9375 C 37.96875 18.9375 37.21875 19.5 37.21875 20.34375 C 37.21875 21.375 37.875 21.75 40.5 22.40625 C 43.59375 23.25 45.375 24.375 45.375 27.09375 C 45.375 30.1875 43.03125 31.96875 39.75 31.96875 C 37.339844 31.878906 35.03125 30.988281 33.1875 29.4375 M 30.1875 16.125 L 27.84375 25.125 L 25.21875 16.125 L 22.59375 16.125 L 19.96875 25.125 L 17.625 16.125 L 13.96875 16.125 L 18.46875 31.6875 L 21.375 31.6875 L 23.90625 22.6875 L 26.4375 31.6875 L 29.34375 31.6875 L 33.84375 16.125 Z M 30.1875 16.125 "/>
</g>
</svg>
